<svg width="1371" height="191" viewBox="0 0 1371 191" fill="none" xmlns="http://www.w3.org/2000/svg">
<rect width="1371" height="191" fill="black"/>
<path d="M659.897 18.292H637.485V40.2851H654.032L653.823 123.021H675.816V62.6971H716.032V40.2851H732.16V18.292H709.748V40.2851H696.133V18.292H673.721V40.2851H659.897V18.292Z" fill="#F1D4D4" fill-opacity="0.3"/>
<path d="M716.032 102.704V81.5483H694.458V102.704H716.032Z" fill="#F1D4D4" fill-opacity="0.3"/>
<path d="M659.897 18.292H637.485V40.2851H654.032L653.823 123.021H675.816V62.6971H716.032V40.2851H732.16V18.292H709.748V40.2851H696.133V18.292H673.721V40.2851H659.897V18.292Z" stroke="#F1D4D4" stroke-width="1.60964" stroke-linejoin="round"/>
<path d="M716.032 102.704V81.5483H694.458V102.704H716.032Z" stroke="#F1D4D4" stroke-width="1.60964" stroke-linejoin="round"/>
<g filter="url(#filter0_d_1676_724)">
<path d="M623.476 155.039L622.595 159.162H626.372V164.009H621.556L620.517 168.825H615.481L616.52 164.009H611.295L610.256 168.825H605.22L606.259 164.009H601.601V159.162H607.298L608.179 155.039H603.615V150.192H609.186L610.193 145.533H615.23L614.222 150.192H619.447L620.454 145.533H625.491L624.483 150.192H628.386V155.039H623.476ZM618.44 155.039H613.215L612.334 159.162H617.559L618.44 155.039ZM645.55 157.494C646.83 157.767 647.858 158.407 648.634 159.414C649.411 160.4 649.799 161.533 649.799 162.813C649.799 164.66 649.148 166.129 647.847 167.22C646.567 168.29 644.773 168.825 642.465 168.825H632.173V146.729H642.119C644.364 146.729 646.116 147.244 647.375 148.272C648.655 149.3 649.295 150.695 649.295 152.458C649.295 153.759 648.949 154.84 648.257 155.7C647.585 156.56 646.683 157.158 645.55 157.494ZM637.555 155.668H641.08C641.962 155.668 642.633 155.48 643.095 155.102C643.577 154.703 643.819 154.126 643.819 153.371C643.819 152.615 643.577 152.038 643.095 151.64C642.633 151.241 641.962 151.042 641.08 151.042H637.555V155.668ZM641.521 164.482C642.423 164.482 643.116 164.282 643.598 163.884C644.102 163.464 644.354 162.866 644.354 162.089C644.354 161.313 644.091 160.705 643.567 160.264C643.063 159.823 642.36 159.603 641.458 159.603H637.555V164.482H641.521ZM670.264 159.76C670.264 160.264 670.232 160.788 670.169 161.334H657.988C658.072 162.425 658.418 163.265 659.027 163.852C659.656 164.419 660.422 164.702 661.325 164.702C662.667 164.702 663.601 164.135 664.126 163.002H669.854C669.561 164.156 669.026 165.195 668.249 166.118C667.494 167.042 666.539 167.766 665.385 168.29C664.231 168.815 662.94 169.077 661.513 169.077C659.793 169.077 658.261 168.71 656.918 167.975C655.575 167.241 654.526 166.192 653.77 164.828C653.015 163.464 652.637 161.869 652.637 160.044C652.637 158.218 653.005 156.623 653.739 155.259C654.494 153.895 655.544 152.846 656.886 152.112C658.229 151.377 659.772 151.01 661.513 151.01C663.213 151.01 664.724 151.367 666.046 152.08C667.368 152.794 668.396 153.811 669.13 155.133C669.886 156.455 670.264 157.998 670.264 159.76ZM664.755 158.344C664.755 157.421 664.441 156.686 663.811 156.141C663.182 155.595 662.395 155.322 661.45 155.322C660.548 155.322 659.782 155.585 659.153 156.109C658.544 156.634 658.166 157.379 658.02 158.344H664.755ZM688.557 153.717C688.159 152.983 687.582 152.427 686.826 152.049C686.092 151.65 685.221 151.451 684.214 151.451C682.472 151.451 681.077 152.028 680.028 153.182C678.978 154.315 678.454 155.836 678.454 157.746C678.454 159.781 678.999 161.376 680.09 162.53C681.203 163.663 682.724 164.23 684.654 164.23C685.976 164.23 687.089 163.894 687.991 163.223C688.914 162.551 689.586 161.586 690.005 160.327H683.175V156.361H694.884V161.366C694.485 162.708 693.803 163.957 692.838 165.111C691.894 166.265 690.687 167.199 689.218 167.912C687.75 168.626 686.092 168.983 684.245 168.983C682.063 168.983 680.111 168.51 678.391 167.566C676.691 166.601 675.359 165.268 674.393 163.569C673.449 161.869 672.977 159.928 672.977 157.746C672.977 155.564 673.449 153.623 674.393 151.923C675.359 150.202 676.691 148.87 678.391 147.926C680.09 146.96 682.031 146.478 684.214 146.478C686.858 146.478 689.082 147.118 690.887 148.398C692.712 149.678 693.919 151.451 694.506 153.717H688.557ZM704.034 154.189C704.664 153.224 705.451 152.468 706.395 151.923C707.339 151.356 708.389 151.073 709.543 151.073V156.77H708.063C706.72 156.77 705.713 157.064 705.042 157.651C704.37 158.218 704.034 159.225 704.034 160.673V168.825H698.652V151.262H704.034V154.189ZM729.458 159.76C729.458 160.264 729.427 160.788 729.364 161.334H717.183C717.267 162.425 717.613 163.265 718.221 163.852C718.851 164.419 719.617 164.702 720.519 164.702C721.862 164.702 722.796 164.135 723.32 163.002H729.049C728.755 164.156 728.22 165.195 727.444 166.118C726.688 167.042 725.734 167.766 724.58 168.29C723.425 168.815 722.135 169.077 720.708 169.077C718.987 169.077 717.456 168.71 716.113 167.975C714.77 167.241 713.72 166.192 712.965 164.828C712.21 163.464 711.832 161.869 711.832 160.044C711.832 158.218 712.199 156.623 712.934 155.259C713.689 153.895 714.738 152.846 716.081 152.112C717.424 151.377 718.966 151.01 720.708 151.01C722.408 151.01 723.919 151.367 725.24 152.08C726.562 152.794 727.591 153.811 728.325 155.133C729.08 156.455 729.458 157.998 729.458 159.76ZM723.95 158.344C723.95 157.421 723.635 156.686 723.006 156.141C722.376 155.595 721.589 155.322 720.645 155.322C719.743 155.322 718.977 155.585 718.347 156.109C717.739 156.634 717.361 157.379 717.214 158.344H723.95ZM732.014 160.012C732.014 158.207 732.35 156.623 733.022 155.259C733.714 153.895 734.648 152.846 735.823 152.112C736.998 151.377 738.309 151.01 739.757 151.01C740.995 151.01 742.076 151.262 742.999 151.766C743.943 152.269 744.667 152.93 745.171 153.748V151.262H750.553V168.825H745.171V166.339C744.646 167.157 743.912 167.818 742.968 168.322C742.044 168.825 740.964 169.077 739.726 169.077C738.299 169.077 736.998 168.71 735.823 167.975C734.648 167.22 733.714 166.16 733.022 164.796C732.35 163.411 732.014 161.817 732.014 160.012ZM745.171 160.044C745.171 158.701 744.793 157.641 744.038 156.865C743.303 156.088 742.401 155.7 741.331 155.7C740.261 155.7 739.348 156.088 738.593 156.865C737.858 157.62 737.491 158.669 737.491 160.012C737.491 161.355 737.858 162.425 738.593 163.223C739.348 163.999 740.261 164.387 741.331 164.387C742.401 164.387 743.303 163.999 744.038 163.223C744.793 162.446 745.171 161.387 745.171 160.044ZM765.023 164.261V168.825H762.285C760.333 168.825 758.812 168.353 757.721 167.409C756.629 166.444 756.084 164.88 756.084 162.719V155.731H753.944V151.262H756.084V146.981H761.466V151.262H764.991V155.731H761.466V162.782C761.466 163.307 761.592 163.684 761.844 163.915C762.096 164.146 762.515 164.261 763.103 164.261H765.023Z" fill="#F1D4D4" fill-opacity="0.15" shape-rendering="crispEdges"/>
<path d="M623.476 155.039V154.502C623.223 154.502 623.004 154.679 622.951 154.927L623.476 155.039ZM622.595 159.162L622.07 159.05C622.036 159.209 622.076 159.374 622.178 159.5C622.279 159.626 622.433 159.699 622.595 159.699V159.162ZM626.372 159.162H626.908C626.908 158.866 626.668 158.626 626.372 158.626V159.162ZM626.372 164.009V164.546C626.668 164.546 626.908 164.306 626.908 164.009H626.372ZM621.556 164.009V163.473C621.303 163.473 621.085 163.649 621.032 163.896L621.556 164.009ZM620.517 168.825V169.362C620.77 169.362 620.989 169.185 621.042 168.938L620.517 168.825ZM615.481 168.825L614.957 168.712C614.923 168.871 614.962 169.036 615.064 169.162C615.166 169.288 615.319 169.362 615.481 169.362V168.825ZM616.52 164.009L617.045 164.123C617.079 163.964 617.039 163.799 616.938 163.672C616.836 163.546 616.682 163.473 616.52 163.473V164.009ZM611.295 164.009V163.473C611.042 163.473 610.824 163.649 610.771 163.896L611.295 164.009ZM610.256 168.825V169.362C610.509 169.362 610.728 169.185 610.781 168.938L610.256 168.825ZM605.22 168.825L604.696 168.712C604.662 168.871 604.701 169.036 604.803 169.162C604.905 169.288 605.058 169.362 605.22 169.362V168.825ZM606.259 164.009L606.784 164.123C606.818 163.964 606.778 163.799 606.677 163.672C606.575 163.546 606.421 163.473 606.259 163.473V164.009ZM601.601 164.009H601.064C601.064 164.306 601.304 164.546 601.601 164.546V164.009ZM601.601 159.162V158.626C601.304 158.626 601.064 158.866 601.064 159.162H601.601ZM607.298 159.162V159.699C607.551 159.699 607.77 159.522 607.822 159.274L607.298 159.162ZM608.179 155.039L608.704 155.151C608.738 154.993 608.698 154.827 608.596 154.702C608.494 154.576 608.341 154.502 608.179 154.502V155.039ZM603.615 155.039H603.079C603.079 155.335 603.319 155.576 603.615 155.576V155.039ZM603.615 150.192V149.655C603.319 149.655 603.079 149.895 603.079 150.192H603.615ZM609.186 150.192V150.728C609.439 150.728 609.657 150.552 609.711 150.305L609.186 150.192ZM610.193 145.533V144.997C609.941 144.997 609.722 145.173 609.669 145.42L610.193 145.533ZM615.23 145.533L615.754 145.647C615.788 145.488 615.749 145.323 615.647 145.196C615.545 145.07 615.392 144.997 615.23 144.997V145.533ZM614.222 150.192L613.698 150.078C613.664 150.237 613.703 150.402 613.805 150.529C613.907 150.655 614.06 150.728 614.222 150.728V150.192ZM619.447 150.192V150.728C619.7 150.728 619.918 150.552 619.972 150.305L619.447 150.192ZM620.454 145.533V144.997C620.202 144.997 619.983 145.173 619.93 145.42L620.454 145.533ZM625.491 145.533L626.015 145.647C626.049 145.488 626.01 145.323 625.908 145.196C625.806 145.07 625.653 144.997 625.491 144.997V145.533ZM624.483 150.192L623.959 150.078C623.925 150.237 623.964 150.402 624.066 150.529C624.168 150.655 624.321 150.728 624.483 150.728V150.192ZM628.386 150.192H628.923C628.923 149.895 628.683 149.655 628.386 149.655V150.192ZM628.386 155.039V155.576C628.683 155.576 628.923 155.335 628.923 155.039H628.386ZM618.44 155.039L618.965 155.151C618.999 154.993 618.959 154.827 618.857 154.702C618.755 154.576 618.602 154.502 618.44 154.502V155.039ZM613.215 155.039V154.502C612.962 154.502 612.743 154.679 612.69 154.927L613.215 155.039ZM612.334 159.162L611.809 159.05C611.775 159.209 611.815 159.374 611.917 159.5C612.019 159.626 612.172 159.699 612.334 159.699V159.162ZM617.559 159.162V159.699C617.812 159.699 618.031 159.522 618.083 159.274L617.559 159.162ZM622.951 154.927L622.07 159.05L623.119 159.274L624.001 155.151L622.951 154.927ZM622.595 159.699H626.372V158.626H622.595V159.699ZM625.835 159.162V164.009H626.908V159.162H625.835ZM626.372 163.473H621.556V164.546H626.372V163.473ZM621.032 163.896L619.993 168.712L621.042 168.938L622.081 164.123L621.032 163.896ZM620.517 168.289H615.481V169.362H620.517V168.289ZM616.006 168.938L617.045 164.123L615.996 163.896L614.957 168.712L616.006 168.938ZM616.52 163.473H611.295V164.546H616.52V163.473ZM610.771 163.896L609.732 168.712L610.781 168.938L611.82 164.123L610.771 163.896ZM610.256 168.289H605.22V169.362H610.256V168.289ZM605.745 168.938L606.784 164.123L605.735 163.896L604.696 168.712L605.745 168.938ZM606.259 163.473H601.601V164.546H606.259V163.473ZM602.137 164.009V159.162H601.064V164.009H602.137ZM601.601 159.699H607.298V158.626H601.601V159.699ZM607.822 159.274L608.704 155.151L607.654 154.927L606.773 159.05L607.822 159.274ZM608.179 154.502H603.615V155.576H608.179V154.502ZM604.152 155.039V150.192H603.079V155.039H604.152ZM603.615 150.728H609.186V149.655H603.615V150.728ZM609.711 150.305L610.718 145.647L609.669 145.42L608.662 150.078L609.711 150.305ZM610.193 146.07H615.23V144.997H610.193V146.07ZM614.705 145.42L613.698 150.078L614.747 150.305L615.754 145.647L614.705 145.42ZM614.222 150.728H619.447V149.655H614.222V150.728ZM619.972 150.305L620.979 145.647L619.93 145.42L618.923 150.078L619.972 150.305ZM620.454 146.07H625.491V144.997H620.454V146.07ZM624.966 145.42L623.959 150.078L625.008 150.305L626.015 145.647L624.966 145.42ZM624.483 150.728H628.386V149.655H624.483V150.728ZM627.85 150.192V155.039H628.923V150.192H627.85ZM628.386 154.502H623.476V155.576H628.386V154.502ZM618.44 154.502H613.215V155.576H618.44V154.502ZM612.69 154.927L611.809 159.05L612.859 159.274L613.74 155.151L612.69 154.927ZM612.334 159.699H617.559V158.626H612.334V159.699ZM618.083 159.274L618.965 155.151L617.915 154.927L617.034 159.05L618.083 159.274ZM645.55 157.494L645.397 156.98C645.162 157.049 645.004 157.27 645.014 157.515C645.023 157.76 645.198 157.968 645.438 158.019L645.55 157.494ZM648.634 159.414L648.209 159.742L648.213 159.746L648.634 159.414ZM647.847 167.22L648.192 167.632L648.192 167.631L647.847 167.22ZM632.173 168.825H631.636C631.636 169.122 631.876 169.362 632.173 169.362V168.825ZM632.173 146.729V146.193C631.876 146.193 631.636 146.433 631.636 146.729H632.173ZM647.375 148.272L647.036 148.687L647.039 148.69L647.375 148.272ZM648.257 155.7L647.839 155.363L647.834 155.37L648.257 155.7ZM637.555 155.668H637.018C637.018 155.965 637.259 156.205 637.555 156.205V155.668ZM643.095 155.102L643.434 155.517L643.436 155.516L643.095 155.102ZM643.095 151.64L642.744 152.046L642.753 152.053L643.095 151.64ZM637.555 151.042V150.505C637.259 150.505 637.018 150.745 637.018 151.042H637.555ZM643.598 163.884L643.94 164.297L643.942 164.296L643.598 163.884ZM643.567 160.264L643.213 160.668L643.222 160.675L643.567 160.264ZM637.555 159.603V159.066C637.259 159.066 637.018 159.307 637.018 159.603H637.555ZM637.555 164.482H637.018C637.018 164.778 637.259 165.018 637.555 165.018V164.482ZM645.438 158.019C646.597 158.266 647.513 158.838 648.209 159.742L649.059 159.086C648.203 157.975 647.062 157.268 645.662 156.969L645.438 158.019ZM648.213 159.746C648.913 160.636 649.262 161.651 649.262 162.813H650.335C650.335 161.416 649.908 160.165 649.056 159.082L648.213 159.746ZM649.262 162.813C649.262 164.517 648.67 165.829 647.503 166.809L648.192 167.631C649.626 166.428 650.335 164.803 650.335 162.813H649.262ZM647.503 166.808C646.351 167.772 644.695 168.289 642.465 168.289V169.362C644.851 169.362 646.784 168.809 648.192 167.632L647.503 166.808ZM642.465 168.289H632.173V169.362H642.465V168.289ZM632.709 168.825V146.729H631.636V168.825H632.709ZM632.173 147.266H642.119V146.193H632.173V147.266ZM642.119 147.266C644.287 147.266 645.904 147.763 647.036 148.687L647.715 147.856C646.329 146.725 644.441 146.193 642.119 146.193V147.266ZM647.039 148.69C648.182 149.608 648.759 150.844 648.759 152.458H649.832C649.832 150.546 649.128 148.992 647.711 147.853L647.039 148.69ZM648.759 152.458C648.759 153.659 648.441 154.615 647.839 155.364L648.675 156.036C649.457 155.064 649.832 153.859 649.832 152.458H648.759ZM647.834 155.37C647.237 156.135 646.433 156.673 645.397 156.98L645.702 158.008C646.933 157.644 647.934 156.986 648.68 156.03L647.834 155.37ZM637.555 156.205H641.08V155.132H637.555V156.205ZM641.08 156.205C642.028 156.205 642.84 156.003 643.434 155.517L642.755 154.687C642.426 154.956 641.895 155.132 641.08 155.132V156.205ZM643.436 155.516C644.068 154.994 644.355 154.25 644.355 153.371H643.282C643.282 154.003 643.087 154.413 642.753 154.688L643.436 155.516ZM644.355 153.371C644.355 152.492 644.068 151.748 643.436 151.226L642.753 152.053C643.087 152.329 643.282 152.739 643.282 153.371H644.355ZM643.445 151.234C642.851 150.72 642.034 150.505 641.08 150.505V151.578C641.889 151.578 642.415 151.762 642.744 152.046L643.445 151.234ZM641.08 150.505H637.555V151.578H641.08V150.505ZM637.018 151.042V155.668H638.091V151.042H637.018ZM641.521 165.018C642.494 165.018 643.327 164.804 643.94 164.297L643.257 163.47C642.905 163.761 642.352 163.945 641.521 163.945V165.018ZM643.942 164.296C644.591 163.755 644.89 162.993 644.89 162.089H643.817C643.817 162.739 643.613 163.173 643.255 163.471L643.942 164.296ZM644.89 162.089C644.89 161.178 644.575 160.41 643.912 159.853L643.222 160.675C643.608 160.999 643.817 161.448 643.817 162.089H644.89ZM643.92 159.86C643.289 159.308 642.444 159.066 641.458 159.066V160.139C642.276 160.139 642.837 160.339 643.213 160.668L643.92 159.86ZM641.458 159.066H637.555V160.139H641.458V159.066ZM637.018 159.603V164.482H638.091V159.603H637.018ZM637.555 165.018H641.521V163.945H637.555V165.018ZM670.169 161.334V161.871C670.442 161.871 670.671 161.666 670.702 161.396L670.169 161.334ZM657.988 161.334V160.798C657.839 160.798 657.696 160.86 657.594 160.969C657.493 161.079 657.442 161.226 657.453 161.375L657.988 161.334ZM659.027 163.852L658.654 164.238C658.659 164.242 658.663 164.247 658.668 164.251L659.027 163.852ZM664.126 163.002V162.466C663.917 162.466 663.727 162.587 663.639 162.777L664.126 163.002ZM669.854 163.002L670.374 163.135C670.415 162.974 670.38 162.804 670.278 162.673C670.176 162.542 670.02 162.466 669.854 162.466V163.002ZM668.249 166.118L667.838 165.773L667.834 165.779L668.249 166.118ZM665.385 168.29L665.607 168.779L665.385 168.29ZM656.918 167.975L656.661 168.446L656.918 167.975ZM653.77 164.828L654.24 164.568L653.77 164.828ZM653.739 155.259L653.27 154.999L653.267 155.005L653.739 155.259ZM656.886 152.112L657.144 152.583L656.886 152.112ZM666.046 152.08L665.791 152.552L666.046 152.08ZM669.13 155.133L668.661 155.394L668.665 155.4L669.13 155.133ZM664.755 158.344V158.88C665.052 158.88 665.292 158.64 665.292 158.344H664.755ZM663.811 156.141L664.162 155.735L663.811 156.141ZM659.153 156.109L658.809 155.697L658.802 155.703L659.153 156.109ZM658.02 158.344L657.489 158.263C657.466 158.418 657.511 158.575 657.613 158.694C657.715 158.812 657.863 158.88 658.02 158.88V158.344ZM669.727 159.76C669.727 160.242 669.697 160.746 669.636 161.273L670.702 161.396C670.767 160.831 670.8 160.286 670.8 159.76H669.727ZM670.169 160.798H657.988V161.871H670.169V160.798ZM657.453 161.375C657.544 162.558 657.926 163.535 658.654 164.238L659.4 163.466C658.91 162.994 658.6 162.293 658.523 161.293L657.453 161.375ZM658.668 164.251C659.403 164.912 660.299 165.238 661.325 165.238V164.165C660.545 164.165 659.91 163.925 659.386 163.453L658.668 164.251ZM661.325 165.238C662.072 165.238 662.742 165.08 663.31 164.736C663.881 164.389 664.312 163.877 664.613 163.228L663.639 162.777C663.415 163.261 663.117 163.598 662.754 163.818C662.388 164.04 661.92 164.165 661.325 164.165V165.238ZM664.126 163.539H669.854V162.466H664.126V163.539ZM669.334 162.87C669.061 163.945 668.564 164.911 667.838 165.773L668.66 166.464C669.487 165.479 670.06 164.368 670.374 163.135L669.334 162.87ZM667.834 165.779C667.134 166.634 666.247 167.309 665.163 167.802L665.607 168.779C666.831 168.222 667.854 167.449 668.664 166.458L667.834 165.779ZM665.163 167.802C664.087 168.291 662.873 168.54 661.513 168.54V169.614C663.007 169.614 664.375 169.339 665.607 168.779L665.163 167.802ZM661.513 168.54C659.871 168.54 658.43 168.191 657.175 167.505L656.661 168.446C658.092 169.229 659.714 169.614 661.513 169.614V168.54ZM657.175 167.505C655.923 166.82 654.947 165.845 654.24 164.568L653.301 165.088C654.105 166.539 655.227 167.662 656.661 168.446L657.175 167.505ZM654.24 164.568C653.535 163.296 653.174 161.794 653.174 160.044H652.101C652.101 161.944 652.495 163.632 653.301 165.088L654.24 164.568ZM653.174 160.044C653.174 158.291 653.526 156.787 654.211 155.514L653.267 155.005C652.483 156.46 652.101 158.145 652.101 160.044H653.174ZM654.208 155.519C654.915 154.242 655.892 153.267 657.144 152.583L656.629 151.641C655.195 152.425 654.073 153.548 653.27 154.999L654.208 155.519ZM657.144 152.583C658.398 151.897 659.849 151.547 661.513 151.547V150.474C659.694 150.474 658.061 150.858 656.629 151.641L657.144 152.583ZM661.513 151.547C663.136 151.547 664.557 151.887 665.791 152.552L666.301 151.608C664.891 150.847 663.29 150.474 661.513 150.474V151.547ZM665.791 152.552C667.022 153.217 667.976 154.161 668.661 155.394L669.599 154.873C668.816 153.462 667.713 152.371 666.301 151.608L665.791 152.552ZM668.665 155.4C669.367 156.628 669.727 158.076 669.727 159.76H670.8C670.8 157.919 670.405 156.282 669.596 154.867L668.665 155.4ZM665.292 158.344C665.292 157.284 664.923 156.394 664.162 155.735L663.46 156.546C663.958 156.978 664.219 157.557 664.219 158.344H665.292ZM664.162 155.735C663.422 155.094 662.505 154.786 661.45 154.786V155.859C662.284 155.859 662.941 156.096 663.46 156.546L664.162 155.735ZM661.45 154.786C660.436 154.786 659.545 155.084 658.809 155.697L659.496 156.521C660.019 156.085 660.66 155.859 661.45 155.859V154.786ZM658.802 155.703C658.077 156.328 657.651 157.2 657.489 158.263L658.55 158.425C658.682 157.558 659.011 156.94 659.503 156.516L658.802 155.703ZM658.02 158.88H664.755V157.807H658.02V158.88ZM688.557 153.717L688.086 153.973C688.18 154.146 688.361 154.254 688.557 154.254V153.717ZM686.826 152.049L686.57 152.52C686.576 152.523 686.581 152.526 686.586 152.529L686.826 152.049ZM680.028 153.182L680.421 153.546L680.425 153.543L680.028 153.182ZM680.09 162.53L679.701 162.899L679.708 162.906L680.09 162.53ZM687.991 163.223L687.675 162.789L687.671 162.792L687.991 163.223ZM690.005 160.327L690.514 160.497C690.569 160.333 690.541 160.153 690.441 160.013C690.34 159.873 690.178 159.79 690.005 159.79V160.327ZM683.175 160.327H682.639C682.639 160.623 682.879 160.863 683.175 160.863V160.327ZM683.175 156.361V155.824C682.879 155.824 682.639 156.065 682.639 156.361H683.175ZM694.884 156.361H695.42C695.42 156.065 695.18 155.824 694.884 155.824V156.361ZM694.884 161.366L695.398 161.518C695.413 161.469 695.42 161.417 695.42 161.366H694.884ZM692.838 165.111L692.426 164.767L692.423 164.771L692.838 165.111ZM689.218 167.912L688.984 167.43L689.218 167.912ZM678.391 167.566L678.126 168.033L678.133 168.037L678.391 167.566ZM674.393 163.569L673.924 163.829L673.927 163.834L674.393 163.569ZM674.393 151.923L673.925 151.66L673.924 151.662L674.393 151.923ZM678.391 147.926L678.651 148.395L678.656 148.392L678.391 147.926ZM690.887 148.398L690.576 148.835L690.579 148.837L690.887 148.398ZM694.506 153.717V154.254C694.672 154.254 694.829 154.177 694.931 154.045C695.032 153.914 695.067 153.743 695.026 153.582L694.506 153.717ZM689.029 153.461C688.577 152.629 687.919 151.995 687.066 151.569L686.586 152.529C687.244 152.858 687.74 153.336 688.086 153.973L689.029 153.461ZM687.082 151.577C686.255 151.128 685.292 150.914 684.214 150.914V151.987C685.15 151.987 685.929 152.172 686.57 152.52L687.082 151.577ZM684.214 150.914C682.341 150.914 680.794 151.541 679.631 152.821L680.425 153.543C681.36 152.514 682.604 151.987 684.214 151.987V150.914ZM679.634 152.817C678.472 154.072 677.917 155.735 677.917 157.746H678.99C678.99 155.938 679.484 154.558 680.421 153.546L679.634 152.817ZM677.917 157.746C677.917 159.878 678.491 161.619 679.701 162.899L680.48 162.162C679.508 161.133 678.99 159.684 678.99 157.746H677.917ZM679.708 162.906C680.942 164.163 682.613 164.766 684.654 164.766V163.693C682.835 163.693 681.464 163.163 680.473 162.154L679.708 162.906ZM684.654 164.766C686.071 164.766 687.301 164.405 688.311 163.653L687.671 162.792C686.876 163.383 685.882 163.693 684.654 163.693V164.766ZM688.306 163.656C689.334 162.909 690.065 161.844 690.514 160.497L689.496 160.157C689.106 161.328 688.494 162.193 687.675 162.789L688.306 163.656ZM690.005 159.79H683.175V160.863H690.005V159.79ZM683.712 160.327V156.361H682.639V160.327H683.712ZM683.175 156.897H694.884V155.824H683.175V156.897ZM694.347 156.361V161.366H695.42V156.361H694.347ZM694.37 161.213C693.993 162.481 693.348 163.665 692.426 164.767L693.25 165.455C694.258 164.249 694.977 162.936 695.398 161.518L694.37 161.213ZM692.423 164.771C691.532 165.86 690.39 166.747 688.984 167.43L689.453 168.395C690.985 167.651 692.255 166.671 693.253 165.451L692.423 164.771ZM688.984 167.43C687.597 168.103 686.021 168.446 684.245 168.446V169.519C686.162 169.519 687.902 169.148 689.453 168.395L688.984 167.43ZM684.245 168.446C682.143 168.446 680.282 167.992 678.649 167.096L678.133 168.037C679.941 169.029 681.983 169.519 684.245 169.519V168.446ZM678.656 167.1C677.04 166.182 675.777 164.919 674.86 163.304L673.927 163.834C674.94 165.618 676.342 167.02 678.126 168.033L678.656 167.1ZM674.862 163.308C673.968 161.698 673.514 159.848 673.514 157.746H672.441C672.441 160.008 672.931 162.041 673.924 163.829L674.862 163.308ZM673.514 157.746C673.514 155.643 673.968 153.794 674.862 152.183L673.924 151.662C672.931 153.451 672.441 155.484 672.441 157.746H673.514ZM674.861 152.185C675.779 150.55 677.04 149.29 678.651 148.395L678.13 147.457C676.342 148.45 674.939 149.854 673.926 151.66L674.861 152.185ZM678.656 148.392C680.266 147.478 682.113 147.014 684.214 147.014V145.941C681.95 145.941 679.915 146.443 678.126 147.459L678.656 148.392ZM684.214 147.014C686.769 147.014 688.879 147.631 690.576 148.835L691.197 147.96C689.285 146.604 686.947 145.941 684.214 145.941V147.014ZM690.579 148.837C692.294 150.04 693.43 151.702 693.987 153.852L695.026 153.582C694.408 151.199 693.13 149.315 691.195 147.958L690.579 148.837ZM694.506 153.18H688.557V154.254H694.506V153.18ZM704.034 154.189H703.498C703.498 154.427 703.654 154.636 703.882 154.703C704.109 154.771 704.354 154.681 704.484 154.482L704.034 154.189ZM706.395 151.923L706.664 152.388L706.671 152.383L706.395 151.923ZM709.543 151.073H710.079C710.079 150.777 709.839 150.537 709.543 150.537V151.073ZM709.543 156.77V157.307C709.839 157.307 710.079 157.066 710.079 156.77H709.543ZM705.042 157.651L705.388 158.062L705.395 158.055L705.042 157.651ZM704.034 168.825V169.362C704.331 169.362 704.571 169.122 704.571 168.825H704.034ZM698.652 168.825H698.116C698.116 169.122 698.356 169.362 698.652 169.362V168.825ZM698.652 151.262V150.725C698.356 150.725 698.116 150.966 698.116 151.262H698.652ZM704.034 151.262H704.571C704.571 150.966 704.331 150.725 704.034 150.725V151.262ZM704.484 154.482C705.07 153.583 705.796 152.889 706.664 152.387L706.127 151.458C705.105 152.048 704.258 152.864 703.585 153.896L704.484 154.482ZM706.671 152.383C707.528 151.869 708.481 151.61 709.543 151.61V150.537C708.296 150.537 707.151 150.844 706.119 151.463L706.671 152.383ZM709.006 151.073V156.77H710.079V151.073H709.006ZM709.543 156.234H708.063V157.307H709.543V156.234ZM708.063 156.234C706.654 156.234 705.497 156.54 704.688 157.248L705.395 158.055C705.93 157.587 706.787 157.307 708.063 157.307V156.234ZM704.696 157.241C703.844 157.96 703.498 159.167 703.498 160.673H704.571C704.571 159.283 704.897 158.476 705.388 158.062L704.696 157.241ZM703.498 160.673V168.825H704.571V160.673H703.498ZM704.034 168.289H698.652V169.362H704.034V168.289ZM699.189 168.825V151.262H698.116V168.825H699.189ZM698.652 151.798H704.034V150.725H698.652V151.798ZM703.498 151.262V154.189H704.571V151.262H703.498ZM729.364 161.334V161.871C729.636 161.871 729.866 161.666 729.897 161.396L729.364 161.334ZM717.183 161.334V160.798C717.033 160.798 716.891 160.86 716.789 160.969C716.688 161.079 716.636 161.226 716.648 161.375L717.183 161.334ZM718.221 163.852L717.849 164.238C717.853 164.242 717.858 164.247 717.863 164.251L718.221 163.852ZM723.32 163.002V162.466C723.111 162.466 722.921 162.587 722.834 162.777L723.32 163.002ZM729.049 163.002L729.569 163.135C729.61 162.974 729.574 162.804 729.473 162.673C729.371 162.542 729.215 162.466 729.049 162.466V163.002ZM727.444 166.118L727.033 165.773L727.028 165.779L727.444 166.118ZM724.579 168.29L724.802 168.779L724.579 168.29ZM716.113 167.975L715.855 168.446L716.113 167.975ZM712.965 164.828L713.434 164.568L712.965 164.828ZM712.934 155.259L712.464 154.999L712.461 155.005L712.934 155.259ZM716.081 152.112L716.339 152.583L716.081 152.112ZM725.24 152.08L724.986 152.552L725.24 152.08ZM728.325 155.133L727.856 155.394L727.859 155.4L728.325 155.133ZM723.95 158.344V158.88C724.246 158.88 724.487 158.64 724.487 158.344H723.95ZM723.006 156.141L723.357 155.735L723.006 156.141ZM718.347 156.109L718.004 155.697L717.997 155.703L718.347 156.109ZM717.214 158.344L716.684 158.263C716.66 158.418 716.705 158.575 716.807 158.694C716.909 158.812 717.058 158.88 717.214 158.88V158.344ZM728.922 159.76C728.922 160.242 728.892 160.746 728.831 161.273L729.897 161.396C729.962 160.831 729.995 160.286 729.995 159.76H728.922ZM729.364 160.798H717.183V161.871H729.364V160.798ZM716.648 161.375C716.739 162.558 717.121 163.535 717.849 164.238L718.594 163.466C718.105 162.994 717.795 162.293 717.718 161.293L716.648 161.375ZM717.863 164.251C718.597 164.912 719.494 165.238 720.519 165.238V164.165C719.74 164.165 719.105 163.925 718.58 163.453L717.863 164.251ZM720.519 165.238C721.266 165.238 721.937 165.08 722.505 164.736C723.076 164.389 723.507 163.877 723.807 163.228L722.834 162.777C722.609 163.261 722.312 163.598 721.948 163.818C721.583 164.04 721.115 164.165 720.519 164.165V165.238ZM723.32 163.539H729.049V162.466H723.32V163.539ZM728.529 162.87C728.255 163.945 727.758 164.911 727.033 165.773L727.854 166.464C728.682 165.479 729.255 164.368 729.569 163.135L728.529 162.87ZM727.028 165.779C726.328 166.634 725.441 167.309 724.357 167.802L724.802 168.779C726.026 168.222 727.048 167.449 727.859 166.458L727.028 165.779ZM724.357 167.802C723.281 168.291 722.068 168.54 720.708 168.54V169.614C722.202 169.614 723.569 169.339 724.802 168.779L724.357 167.802ZM720.708 168.54C719.066 168.54 717.625 168.191 716.37 167.505L715.855 168.446C717.286 169.229 718.909 169.614 720.708 169.614V168.54ZM716.37 167.505C715.118 166.82 714.142 165.845 713.434 164.568L712.496 165.088C713.299 166.539 714.421 167.662 715.855 168.446L716.37 167.505ZM713.434 164.568C712.73 163.296 712.369 161.794 712.369 160.044H711.295C711.295 161.944 711.689 163.632 712.496 165.088L713.434 164.568ZM712.369 160.044C712.369 158.291 712.721 156.787 713.406 155.514L712.461 155.005C711.678 156.46 711.295 158.145 711.295 160.044H712.369ZM713.403 155.519C714.11 154.242 715.087 153.267 716.339 152.583L715.824 151.641C714.39 152.425 713.268 153.548 712.464 154.999L713.403 155.519ZM716.339 152.583C717.592 151.897 719.044 151.547 720.708 151.547V150.474C718.889 150.474 717.256 150.858 715.824 151.641L716.339 152.583ZM720.708 151.547C722.331 151.547 723.752 151.887 724.986 152.552L725.495 151.608C724.085 150.847 722.485 150.474 720.708 150.474V151.547ZM724.986 152.552C726.217 153.217 727.171 154.161 727.856 155.394L728.794 154.873C728.01 153.462 726.908 152.371 725.495 151.608L724.986 152.552ZM727.859 155.4C728.561 156.628 728.922 158.076 728.922 159.76H729.995C729.995 157.919 729.6 156.282 728.791 154.867L727.859 155.4ZM724.487 158.344C724.487 157.284 724.118 156.394 723.357 155.735L722.654 156.546C723.153 156.978 723.413 157.557 723.413 158.344H724.487ZM723.357 155.735C722.617 155.094 721.7 154.786 720.645 154.786V155.859C721.479 155.859 722.135 156.096 722.654 156.546L723.357 155.735ZM720.645 154.786C719.631 154.786 718.74 155.084 718.004 155.697L718.691 156.521C719.214 156.085 719.855 155.859 720.645 155.859V154.786ZM717.997 155.703C717.272 156.328 716.846 157.2 716.684 158.263L717.745 158.425C717.877 157.558 718.206 156.94 718.698 156.516L717.997 155.703ZM717.214 158.88H723.95V157.807H717.214V158.88ZM733.022 155.259L732.543 155.016L732.54 155.022L733.022 155.259ZM735.823 152.112L736.107 152.567L735.823 152.112ZM742.999 151.766L742.742 152.237L742.747 152.239L742.999 151.766ZM745.171 153.748L744.714 154.03C744.84 154.234 745.086 154.33 745.317 154.265C745.548 154.199 745.708 153.989 745.708 153.748H745.171ZM745.171 151.262V150.725C744.875 150.725 744.634 150.966 744.634 151.262H745.171ZM750.553 151.262H751.09C751.09 150.966 750.85 150.725 750.553 150.725V151.262ZM750.553 168.825V169.362C750.85 169.362 751.09 169.122 751.09 168.825H750.553ZM745.171 168.825H744.634C744.634 169.122 744.875 169.362 745.171 169.362V168.825ZM745.171 166.339H745.708C745.708 166.1 745.551 165.891 745.322 165.824C745.093 165.757 744.848 165.849 744.719 166.049L745.171 166.339ZM742.968 168.322L742.715 167.848L742.711 167.851L742.968 168.322ZM735.823 167.975L735.533 168.427L735.538 168.43L735.823 167.975ZM733.022 164.796L732.539 165.03L732.543 165.039L733.022 164.796ZM744.038 156.865L743.648 157.233L743.653 157.239L744.038 156.865ZM738.593 156.865L738.208 156.49L738.208 156.491L738.593 156.865ZM738.593 163.223L738.198 163.586C738.201 163.59 738.205 163.593 738.208 163.597L738.593 163.223ZM744.038 163.223L743.653 162.848L743.648 162.854L744.038 163.223ZM732.551 160.012C732.551 158.274 732.874 156.774 733.503 155.496L732.54 155.022C731.826 156.473 731.478 158.141 731.478 160.012H732.551ZM733.5 155.502C734.153 154.216 735.023 153.244 736.107 152.567L735.538 151.657C734.272 152.448 733.275 153.575 732.543 155.016L733.5 155.502ZM736.107 152.567C737.193 151.888 738.405 151.547 739.757 151.547V150.474C738.214 150.474 736.803 150.867 735.538 151.657L736.107 152.567ZM739.757 151.547C740.921 151.547 741.911 151.783 742.742 152.237L743.256 151.294C742.241 150.741 741.069 150.474 739.757 150.474V151.547ZM742.747 152.239C743.617 152.703 744.266 153.301 744.714 154.03L745.628 153.467C745.069 152.559 744.27 151.835 743.252 151.292L742.747 152.239ZM745.708 153.748V151.262H744.634V153.748H745.708ZM745.171 151.798H750.553V150.725H745.171V151.798ZM750.017 151.262V168.825H751.09V151.262H750.017ZM750.553 168.289H745.171V169.362H750.553V168.289ZM745.708 168.825V166.339H744.634V168.825H745.708ZM744.719 166.049C744.249 166.782 743.587 167.383 742.715 167.848L743.22 168.795C744.237 168.253 745.044 167.532 745.623 166.628L744.719 166.049ZM742.711 167.851C741.879 168.304 740.89 168.54 739.726 168.54V169.614C741.038 169.614 742.21 169.346 743.225 168.793L742.711 167.851ZM739.726 168.54C738.396 168.54 737.194 168.2 736.107 167.52L735.538 168.43C736.801 169.22 738.201 169.614 739.726 169.614V168.54ZM736.113 167.524C735.026 166.825 734.154 165.841 733.5 164.553L732.543 165.039C733.274 166.48 734.27 167.615 735.533 168.427L736.113 167.524ZM733.504 164.562C732.874 163.262 732.551 161.749 732.551 160.012H731.478C731.478 161.884 731.826 163.561 732.539 165.03L733.504 164.562ZM745.708 160.044C745.708 158.596 745.297 157.39 744.422 156.49L743.653 157.239C744.289 157.892 744.634 158.805 744.634 160.044H745.708ZM744.428 156.496C743.592 155.612 742.548 155.163 741.331 155.163V156.237C742.254 156.237 743.015 156.564 743.648 157.233L744.428 156.496ZM741.331 155.163C740.114 155.163 739.063 155.612 738.208 156.49L738.977 157.239C739.633 156.565 740.408 156.237 741.331 156.237V155.163ZM738.208 156.491C737.351 157.372 736.954 158.57 736.954 160.012H738.028C738.028 158.769 738.365 157.868 738.977 157.239L738.208 156.491ZM736.954 160.012C736.954 161.456 737.352 162.667 738.198 163.586L738.987 162.859C738.365 162.183 738.028 161.254 738.028 160.012H736.954ZM738.208 163.597C739.063 164.476 740.114 164.924 741.331 164.924V163.851C740.408 163.851 739.633 163.522 738.977 162.848L738.208 163.597ZM741.331 164.924C742.548 164.924 743.592 164.475 744.428 163.591L743.648 162.854C743.015 163.523 742.254 163.851 741.331 163.851V164.924ZM744.422 163.597C745.297 162.697 745.708 161.491 745.708 160.044H744.634C744.634 161.282 744.289 162.195 743.653 162.848L744.422 163.597ZM765.023 164.261H765.559C765.559 163.965 765.319 163.725 765.023 163.725V164.261ZM765.023 168.825V169.362C765.319 169.362 765.559 169.122 765.559 168.825H765.023ZM757.721 167.409L757.365 167.811L757.37 167.815L757.721 167.409ZM756.084 155.731H756.62C756.62 155.435 756.38 155.195 756.084 155.195V155.731ZM753.944 155.731H753.407C753.407 156.028 753.647 156.268 753.944 156.268V155.731ZM753.944 151.262V150.725C753.647 150.725 753.407 150.966 753.407 151.262H753.944ZM756.084 151.262V151.798C756.38 151.798 756.62 151.558 756.62 151.262H756.084ZM756.084 146.981V146.445C755.788 146.445 755.547 146.685 755.547 146.981H756.084ZM761.466 146.981H762.003C762.003 146.685 761.763 146.445 761.466 146.445V146.981ZM761.466 151.262H760.93C760.93 151.558 761.17 151.798 761.466 151.798V151.262ZM764.991 151.262H765.528C765.528 150.966 765.288 150.725 764.991 150.725V151.262ZM764.991 155.731V156.268C765.288 156.268 765.528 156.028 765.528 155.731H764.991ZM761.466 155.731V155.195C761.17 155.195 760.93 155.435 760.93 155.731H761.466ZM761.844 163.915L761.481 164.311L761.844 163.915ZM764.486 164.261V168.825H765.559V164.261H764.486ZM765.023 168.289H762.285V169.362H765.023V168.289ZM762.285 168.289C760.416 168.289 759.036 167.837 758.072 167.003L757.37 167.815C758.588 168.869 760.25 169.362 762.285 169.362V168.289ZM758.076 167.007C757.146 166.185 756.62 164.802 756.62 162.719H755.547C755.547 164.959 756.112 166.703 757.365 167.811L758.076 167.007ZM756.62 162.719V155.731H755.547V162.719H756.62ZM756.084 155.195H753.944V156.268H756.084V155.195ZM754.48 155.731V151.262H753.407V155.731H754.48ZM753.944 151.798H756.084V150.725H753.944V151.798ZM756.62 151.262V146.981H755.547V151.262H756.62ZM756.084 147.518H761.466V146.445H756.084V147.518ZM760.93 146.981V151.262H762.003V146.981H760.93ZM761.466 151.798H764.991V150.725H761.466V151.798ZM764.455 151.262V155.731H765.528V151.262H764.455ZM764.991 155.195H761.466V156.268H764.991V155.195ZM760.93 155.731V162.782H762.003V155.731H760.93ZM760.93 162.782C760.93 163.377 761.071 163.934 761.481 164.311L762.206 163.52C762.113 163.434 762.003 163.236 762.003 162.782H760.93ZM761.481 164.311C761.882 164.678 762.47 164.798 763.103 164.798V163.725C762.561 163.725 762.309 163.614 762.206 163.52L761.481 164.311ZM763.103 164.798H765.023V163.725H763.103V164.798Z" fill="#F1D4D4"/>
</g>
<defs>
<filter id="filter0_d_1676_724" x="601.103" y="145.533" width="164.418" height="24.5392" filterUnits="userSpaceOnUse" color-interpolation-filters="sRGB">
<feFlood flood-opacity="0" result="BackgroundImageFix"/>
<feColorMatrix in="SourceAlpha" type="matrix" values="0 0 0 0 0 0 0 0 0 0 0 0 0 0 0 0 0 0 127 0" result="hardAlpha"/>
<feOffset dy="0.497635"/>
<feGaussianBlur stdDeviation="0.248817"/>
<feComposite in2="hardAlpha" operator="out"/>
<feColorMatrix type="matrix" values="0 0 0 0 0 0 0 0 0 0 0 0 0 0 0 0 0 0 0.25 0"/>
<feBlend mode="normal" in2="BackgroundImageFix" result="effect1_dropShadow_1676_724"/>
<feBlend mode="normal" in="SourceGraphic" in2="effect1_dropShadow_1676_724" result="shape"/>
</filter>
</defs>
</svg>
