<svg width="4096" height="2304" viewBox="0 0 4096 2304" fill="none" xmlns="http://www.w3.org/2000/svg">
<rect width="4096" height="2304" fill="black"/>
<path d="M1847.65 477H1667.5V653.781H1800.51L1798.82 1318.81H1975.6V833.929H2298.86V653.781H2428.5V477H2248.35V653.781H2138.92V477H1958.77V653.781H1847.65V477Z" fill="#F1D4D4" fill-opacity="0.2"/>
<path d="M2298.86 1155.5V985.456H2125.45V1155.5H2298.86Z" fill="#F1D4D4" fill-opacity="0.2"/>
<path d="M1847.65 477H1667.5V653.781H1800.51L1798.82 1318.81H1975.6V833.929H2298.86V653.781H2428.5V477H2248.35V653.781H2138.92V477H1958.77V653.781H1847.65V477Z" stroke="#F1D4D4" stroke-width="10" stroke-linejoin="round"/>
<path d="M2298.86 1155.5V985.456H2125.45V1155.5H2298.86Z" stroke="#F1D4D4" stroke-width="10" stroke-linejoin="round"/>
<g filter="url(#filter0_d_1618_725)">
<path d="M1554.9 1656L1547.81 1689.14H1578.17V1728.11H1539.46L1531.11 1766.81H1490.63L1498.98 1728.11H1456.98L1448.64 1766.81H1408.16L1416.5 1728.11H1379.06V1689.14H1424.85L1431.94 1656H1395.25V1617.04H1440.03L1448.13 1579.59H1488.61L1480.51 1617.04H1522.51L1530.61 1579.59H1571.09L1562.99 1617.04H1594.36V1656H1554.9ZM1514.42 1656H1472.42L1465.33 1689.14H1507.33L1514.42 1656ZM1732.32 1675.73C1742.61 1677.93 1750.88 1683.07 1757.12 1691.17C1763.36 1699.09 1766.48 1708.2 1766.48 1718.49C1766.48 1733.33 1761.25 1745.14 1750.79 1753.91C1740.5 1762.51 1726.08 1766.81 1707.53 1766.81H1624.8V1589.21H1704.75C1722.79 1589.21 1736.88 1593.34 1747 1601.61C1757.29 1609.87 1762.43 1621.09 1762.43 1635.25C1762.43 1645.71 1759.65 1654.4 1754.08 1661.31C1748.68 1668.23 1741.43 1673.04 1732.32 1675.73ZM1668.06 1661.06H1696.4C1703.48 1661.06 1708.88 1659.54 1712.59 1656.51C1716.47 1653.3 1718.41 1648.66 1718.41 1642.59C1718.41 1636.52 1716.47 1631.88 1712.59 1628.68C1708.88 1625.47 1703.48 1623.87 1696.4 1623.87H1668.06V1661.06ZM1699.94 1731.9C1707.19 1731.9 1712.76 1730.3 1716.64 1727.09C1720.69 1723.72 1722.71 1718.91 1722.71 1712.67C1722.71 1706.43 1720.6 1701.54 1716.38 1698C1712.34 1694.46 1706.69 1692.69 1699.43 1692.69H1668.06V1731.9H1699.94ZM1930.97 1693.95C1930.97 1698 1930.72 1702.22 1930.21 1706.6H1832.3C1832.98 1715.37 1835.76 1722.12 1840.65 1726.84C1845.71 1731.39 1851.87 1733.67 1859.12 1733.67C1869.92 1733.67 1877.42 1729.12 1881.64 1720.01H1927.68C1925.32 1729.29 1921.02 1737.64 1914.78 1745.06C1908.71 1752.48 1901.04 1758.3 1891.76 1762.51C1882.48 1766.73 1872.11 1768.84 1860.64 1768.84C1846.81 1768.84 1834.5 1765.89 1823.7 1759.98C1812.91 1754.08 1804.47 1745.65 1798.4 1734.68C1792.33 1723.72 1789.29 1710.9 1789.29 1696.23C1789.29 1681.55 1792.25 1668.73 1798.15 1657.77C1804.22 1646.81 1812.65 1638.37 1823.45 1632.47C1834.24 1626.57 1846.64 1623.62 1860.64 1623.62C1874.3 1623.62 1886.45 1626.48 1897.07 1632.22C1907.7 1637.95 1915.96 1646.13 1921.87 1656.76C1927.94 1667.39 1930.97 1679.78 1930.97 1693.95ZM1886.7 1682.57C1886.7 1675.14 1884.17 1669.24 1879.11 1664.86C1874.05 1660.47 1867.72 1658.28 1860.13 1658.28C1852.88 1658.28 1846.72 1660.39 1841.66 1664.6C1836.77 1668.82 1833.74 1674.81 1832.56 1682.57H1886.7ZM2078.02 1645.37C2074.82 1639.47 2070.18 1635 2064.1 1631.97C2058.2 1628.76 2051.2 1627.16 2043.11 1627.16C2029.11 1627.16 2017.89 1631.8 2009.46 1641.07C2001.02 1650.18 1996.81 1662.41 1996.81 1677.76C1996.81 1694.12 2001.19 1706.94 2009.96 1716.21C2018.9 1725.32 2031.13 1729.88 2046.65 1729.88C2057.27 1729.88 2066.21 1727.18 2073.47 1721.78C2080.89 1716.38 2086.28 1708.62 2089.66 1698.5H2034.76V1666.63H2128.87V1706.85C2125.67 1717.65 2120.19 1727.68 2112.43 1736.96C2104.84 1746.24 2095.14 1753.74 2083.33 1759.48C2071.53 1765.21 2058.2 1768.08 2043.36 1768.08C2025.82 1768.08 2010.13 1764.28 1996.3 1756.69C1982.64 1748.94 1971.93 1738.23 1964.17 1724.56C1956.58 1710.9 1952.78 1695.3 1952.78 1677.76C1952.78 1660.22 1956.58 1644.62 1964.17 1630.95C1971.93 1617.12 1982.64 1606.41 1996.3 1598.82C2009.96 1591.06 2025.56 1587.18 2043.11 1587.18C2064.36 1587.18 2082.24 1592.33 2096.74 1602.62C2111.42 1612.91 2121.11 1627.16 2125.84 1645.37H2078.02ZM2202.42 1649.17C2207.48 1641.41 2213.81 1635.34 2221.4 1630.95C2228.99 1626.4 2237.42 1624.12 2246.7 1624.12V1669.92H2234.81C2224.01 1669.92 2215.92 1672.28 2210.52 1677C2205.12 1681.55 2202.42 1689.65 2202.42 1701.29V1766.81H2159.16V1625.64H2202.42V1649.17ZM2406.78 1693.95C2406.78 1698 2406.53 1702.22 2406.02 1706.6H2308.11C2308.79 1715.37 2311.57 1722.12 2316.46 1726.84C2321.52 1731.39 2327.68 1733.67 2334.93 1733.67C2345.72 1733.67 2353.23 1729.12 2357.45 1720.01H2403.49C2401.13 1729.29 2396.83 1737.64 2390.59 1745.06C2384.52 1752.48 2376.84 1758.3 2367.57 1762.51C2358.29 1766.73 2347.92 1768.84 2336.45 1768.84C2322.62 1768.84 2310.3 1765.89 2299.51 1759.98C2288.71 1754.08 2280.28 1745.65 2274.21 1734.68C2268.14 1723.72 2265.1 1710.9 2265.1 1696.23C2265.1 1681.55 2268.05 1668.73 2273.96 1657.77C2280.03 1646.81 2288.46 1638.37 2299.26 1632.47C2310.05 1626.57 2322.45 1623.62 2336.45 1623.62C2350.11 1623.62 2362.25 1626.48 2372.88 1632.22C2383.51 1637.95 2391.77 1646.13 2397.67 1656.76C2403.75 1667.39 2406.78 1679.78 2406.78 1693.95ZM2362.51 1682.57C2362.51 1675.14 2359.98 1669.24 2354.92 1664.86C2349.86 1660.47 2343.53 1658.28 2335.94 1658.28C2328.69 1658.28 2322.53 1660.39 2317.47 1664.6C2312.58 1668.82 2309.55 1674.81 2308.36 1682.57H2362.51ZM2427.33 1695.97C2427.33 1681.47 2430.03 1668.73 2435.42 1657.77C2440.99 1646.81 2448.5 1638.37 2457.94 1632.47C2467.39 1626.57 2477.93 1623.62 2489.57 1623.62C2499.52 1623.62 2508.2 1625.64 2515.62 1629.69C2523.21 1633.74 2529.03 1639.05 2533.08 1645.63V1625.64H2576.34V1766.81H2533.08V1746.83C2528.87 1753.41 2522.96 1758.72 2515.37 1762.77C2507.95 1766.81 2499.26 1768.84 2489.31 1768.84C2477.84 1768.84 2467.39 1765.89 2457.94 1759.98C2448.5 1753.91 2440.99 1745.39 2435.42 1734.43C2430.03 1723.3 2427.33 1710.48 2427.33 1695.97ZM2533.08 1696.23C2533.08 1685.43 2530.05 1676.92 2523.97 1670.67C2518.07 1664.43 2510.82 1661.31 2502.22 1661.31C2493.61 1661.31 2486.28 1664.43 2480.2 1670.67C2474.3 1676.75 2471.35 1685.18 2471.35 1695.97C2471.35 1706.77 2474.3 1715.37 2480.2 1721.78C2486.28 1728.02 2493.61 1731.14 2502.22 1731.14C2510.82 1731.14 2518.07 1728.02 2523.97 1721.78C2530.05 1715.54 2533.08 1707.02 2533.08 1696.23ZM2692.65 1730.13V1766.81H2670.64C2654.95 1766.81 2642.73 1763.02 2633.96 1755.43C2625.19 1747.67 2620.8 1735.11 2620.8 1717.73V1661.57H2603.6V1625.64H2620.8V1591.23H2664.06V1625.64H2692.4V1661.57H2664.06V1718.24C2664.06 1722.46 2665.07 1725.49 2667.1 1727.35C2669.12 1729.2 2672.5 1730.13 2677.22 1730.13H2692.65Z" fill="#F1D4D4" fill-opacity="0.2" shape-rendering="crispEdges"/>
<path d="M1554.9 1656V1652C1553.01 1652 1551.38 1653.32 1550.98 1655.16L1554.9 1656ZM1547.81 1689.14L1543.9 1688.31C1543.65 1689.49 1543.94 1690.72 1544.7 1691.66C1545.46 1692.6 1546.6 1693.14 1547.81 1693.14V1689.14ZM1578.17 1689.14H1582.17C1582.17 1686.93 1580.38 1685.14 1578.17 1685.14V1689.14ZM1578.17 1728.11V1732.11C1580.38 1732.11 1582.17 1730.31 1582.17 1728.11H1578.17ZM1539.46 1728.11V1724.11C1537.58 1724.11 1535.95 1725.42 1535.55 1727.26L1539.46 1728.11ZM1531.11 1766.81V1770.81C1533 1770.81 1534.63 1769.5 1535.02 1767.66L1531.11 1766.81ZM1490.63 1766.81L1486.72 1765.97C1486.47 1767.15 1486.76 1768.39 1487.52 1769.33C1488.28 1770.27 1489.42 1770.81 1490.63 1770.81V1766.81ZM1498.98 1728.11L1502.89 1728.95C1503.15 1727.77 1502.85 1726.53 1502.09 1725.59C1501.33 1724.65 1500.19 1724.11 1498.98 1724.11V1728.11ZM1456.98 1728.11V1724.11C1455.1 1724.11 1453.47 1725.42 1453.07 1727.26L1456.98 1728.11ZM1448.64 1766.81V1770.81C1450.52 1770.81 1452.15 1769.5 1452.55 1767.66L1448.64 1766.81ZM1408.16 1766.81L1404.24 1765.97C1403.99 1767.15 1404.28 1768.39 1405.04 1769.33C1405.8 1770.27 1406.95 1770.81 1408.16 1770.81V1766.81ZM1416.5 1728.11L1420.41 1728.95C1420.67 1727.77 1420.38 1726.53 1419.62 1725.59C1418.86 1724.65 1417.71 1724.11 1416.5 1724.11V1728.11ZM1379.06 1728.11H1375.06C1375.06 1730.31 1376.85 1732.11 1379.06 1732.11V1728.11ZM1379.06 1689.14V1685.14C1376.85 1685.14 1375.06 1686.93 1375.06 1689.14H1379.06ZM1424.85 1689.14V1693.14C1426.74 1693.14 1428.37 1691.82 1428.76 1689.98L1424.85 1689.14ZM1431.94 1656L1435.85 1656.84C1436.1 1655.66 1435.81 1654.42 1435.05 1653.48C1434.29 1652.55 1433.14 1652 1431.94 1652V1656ZM1395.25 1656H1391.25C1391.25 1658.21 1393.04 1660 1395.25 1660V1656ZM1395.25 1617.04V1613.04C1393.04 1613.04 1391.25 1614.83 1391.25 1617.04H1395.25ZM1440.03 1617.04V1621.04C1441.92 1621.04 1443.54 1619.72 1443.94 1617.88L1440.03 1617.04ZM1448.13 1579.59V1575.59C1446.25 1575.59 1444.62 1576.91 1444.22 1578.75L1448.13 1579.59ZM1488.61 1579.59L1492.52 1580.44C1492.77 1579.26 1492.48 1578.02 1491.72 1577.08C1490.96 1576.14 1489.82 1575.59 1488.61 1575.59V1579.59ZM1480.51 1617.04L1476.6 1616.19C1476.35 1617.38 1476.64 1618.61 1477.4 1619.55C1478.16 1620.49 1479.3 1621.04 1480.51 1621.04V1617.04ZM1522.51 1617.04V1621.04C1524.39 1621.04 1526.02 1619.72 1526.42 1617.88L1522.51 1617.04ZM1530.61 1579.59V1575.59C1528.72 1575.59 1527.1 1576.91 1526.7 1578.75L1530.61 1579.59ZM1571.09 1579.59L1575 1580.44C1575.25 1579.26 1574.96 1578.02 1574.2 1577.08C1573.44 1576.14 1572.3 1575.59 1571.09 1575.59V1579.59ZM1562.99 1617.04L1559.08 1616.19C1558.83 1617.38 1559.12 1618.61 1559.88 1619.55C1560.64 1620.49 1561.78 1621.04 1562.99 1621.04V1617.04ZM1594.36 1617.04H1598.36C1598.36 1614.83 1596.57 1613.04 1594.36 1613.04V1617.04ZM1594.36 1656V1660C1596.57 1660 1598.36 1658.21 1598.36 1656H1594.36ZM1514.42 1656L1518.33 1656.84C1518.58 1655.66 1518.28 1654.42 1517.53 1653.48C1516.77 1652.55 1515.62 1652 1514.42 1652V1656ZM1472.42 1656V1652C1470.53 1652 1468.9 1653.32 1468.51 1655.16L1472.42 1656ZM1465.33 1689.14L1461.42 1688.31C1461.17 1689.49 1461.46 1690.72 1462.22 1691.66C1462.98 1692.6 1464.13 1693.14 1465.33 1693.14V1689.14ZM1507.33 1689.14V1693.14C1509.22 1693.14 1510.85 1691.82 1511.24 1689.98L1507.33 1689.14ZM1550.98 1655.16L1543.9 1688.31L1551.72 1689.98L1558.81 1656.84L1550.98 1655.16ZM1547.81 1693.14H1578.17V1685.14H1547.81V1693.14ZM1574.17 1689.14V1728.11H1582.17V1689.14H1574.17ZM1578.17 1724.11H1539.46V1732.11H1578.17V1724.11ZM1535.55 1727.26L1527.2 1765.97L1535.02 1767.66L1543.37 1728.95L1535.55 1727.26ZM1531.11 1762.81H1490.63V1770.81H1531.11V1762.81ZM1494.54 1767.66L1502.89 1728.95L1495.07 1727.26L1486.72 1765.97L1494.54 1767.66ZM1498.98 1724.11H1456.98V1732.11H1498.98V1724.11ZM1453.07 1727.26L1444.72 1765.97L1452.55 1767.66L1460.89 1728.95L1453.07 1727.26ZM1448.64 1762.81H1408.16V1770.81H1448.64V1762.81ZM1412.07 1767.66L1420.41 1728.95L1412.59 1727.26L1404.24 1765.97L1412.07 1767.66ZM1416.5 1724.11H1379.06V1732.11H1416.5V1724.11ZM1383.06 1728.11V1689.14H1375.06V1728.11H1383.06ZM1379.06 1693.14H1424.85V1685.14H1379.06V1693.14ZM1428.76 1689.98L1435.85 1656.84L1428.03 1655.16L1420.94 1688.31L1428.76 1689.98ZM1431.94 1652H1395.25V1660H1431.94V1652ZM1399.25 1656V1617.04H1391.25V1656H1399.25ZM1395.25 1621.04H1440.03V1613.04H1395.25V1621.04ZM1443.94 1617.88L1452.04 1580.44L1444.22 1578.75L1436.12 1616.19L1443.94 1617.88ZM1448.13 1583.59H1488.61V1575.59H1448.13V1583.59ZM1484.7 1578.75L1476.6 1616.19L1484.42 1617.88L1492.52 1580.44L1484.7 1578.75ZM1480.51 1621.04H1522.51V1613.04H1480.51V1621.04ZM1526.42 1617.88L1534.52 1580.44L1526.7 1578.75L1518.6 1616.19L1526.42 1617.88ZM1530.61 1583.59H1571.09V1575.59H1530.61V1583.59ZM1567.18 1578.75L1559.08 1616.19L1566.9 1617.88L1575 1580.44L1567.18 1578.75ZM1562.99 1621.04H1594.36V1613.04H1562.99V1621.04ZM1590.36 1617.04V1656H1598.36V1617.04H1590.36ZM1594.36 1652H1554.9V1660H1594.36V1652ZM1514.42 1652H1472.42V1660H1514.42V1652ZM1468.51 1655.16L1461.42 1688.31L1469.24 1689.98L1476.33 1656.84L1468.51 1655.16ZM1465.33 1693.14H1507.33V1685.14H1465.33V1693.14ZM1511.24 1689.98L1518.33 1656.84L1510.5 1655.16L1503.42 1688.31L1511.24 1689.98ZM1732.32 1675.73L1731.19 1671.9C1729.43 1672.42 1728.25 1674.06 1728.33 1675.89C1728.4 1677.72 1729.7 1679.27 1731.49 1679.65L1732.32 1675.73ZM1757.12 1691.17L1753.95 1693.61C1753.96 1693.62 1753.97 1693.63 1753.97 1693.64L1757.12 1691.17ZM1750.79 1753.91L1753.36 1756.98L1753.36 1756.98L1750.79 1753.91ZM1624.8 1766.81H1620.8C1620.8 1769.02 1622.59 1770.81 1624.8 1770.81V1766.81ZM1624.8 1589.21V1585.21C1622.59 1585.21 1620.8 1587 1620.8 1589.21H1624.8ZM1747 1601.61L1744.47 1604.7C1744.48 1604.71 1744.48 1604.72 1744.49 1604.72L1747 1601.61ZM1754.08 1661.31L1750.97 1658.81C1750.95 1658.82 1750.94 1658.84 1750.93 1658.85L1754.08 1661.31ZM1668.06 1661.06H1664.06C1664.06 1663.27 1665.85 1665.06 1668.06 1665.06V1661.06ZM1712.59 1656.51L1715.12 1659.6C1715.13 1659.6 1715.13 1659.59 1715.14 1659.59L1712.59 1656.51ZM1712.59 1628.68L1709.97 1631.7C1710 1631.72 1710.02 1631.74 1710.04 1631.76L1712.59 1628.68ZM1668.06 1623.87V1619.87C1665.85 1619.87 1664.06 1621.66 1664.06 1623.87H1668.06ZM1716.64 1727.09L1719.18 1730.18C1719.19 1730.17 1719.19 1730.17 1719.2 1730.17L1716.64 1727.09ZM1716.38 1698L1713.75 1701.01C1713.77 1701.03 1713.79 1701.04 1713.81 1701.06L1716.38 1698ZM1668.06 1692.69V1688.69C1665.85 1688.69 1664.06 1690.48 1664.06 1692.69H1668.06ZM1668.06 1731.9H1664.06C1664.06 1734.11 1665.85 1735.9 1668.06 1735.9V1731.9ZM1731.49 1679.65C1740.88 1681.65 1748.31 1686.29 1753.95 1693.61L1760.29 1688.73C1753.45 1679.85 1744.34 1674.21 1733.16 1671.82L1731.49 1679.65ZM1753.97 1693.64C1759.65 1700.85 1762.48 1709.08 1762.48 1718.49H1770.48C1770.48 1707.32 1767.07 1697.34 1760.26 1688.69L1753.97 1693.64ZM1762.48 1718.49C1762.48 1732.27 1757.69 1742.91 1748.22 1750.85L1753.36 1756.98C1764.81 1747.37 1770.48 1734.4 1770.48 1718.49H1762.48ZM1748.23 1750.84C1738.89 1758.65 1725.5 1762.81 1707.53 1762.81V1770.81C1726.66 1770.81 1742.12 1766.38 1753.36 1756.98L1748.23 1750.84ZM1707.53 1762.81H1624.8V1770.81H1707.53V1762.81ZM1628.8 1766.81V1589.21H1620.8V1766.81H1628.8ZM1624.8 1593.21H1704.75V1585.21H1624.8V1593.21ZM1704.75 1593.21C1722.22 1593.21 1735.29 1597.21 1744.47 1604.7L1749.53 1598.51C1738.46 1589.47 1723.37 1585.21 1704.75 1585.21V1593.21ZM1744.49 1604.72C1753.76 1612.17 1758.43 1622.2 1758.43 1635.25H1766.43C1766.43 1619.98 1760.81 1607.57 1749.5 1598.49L1744.49 1604.72ZM1758.43 1635.25C1758.43 1644.97 1755.86 1652.72 1750.97 1658.81L1757.2 1663.82C1763.43 1656.07 1766.43 1646.45 1766.43 1635.25H1758.43ZM1750.93 1658.85C1746.09 1665.06 1739.57 1669.42 1731.19 1671.9L1733.46 1679.57C1743.3 1676.65 1751.28 1671.4 1757.23 1663.77L1750.93 1658.85ZM1668.06 1665.06H1696.4V1657.06H1668.06V1665.06ZM1696.4 1665.06C1703.98 1665.06 1710.42 1663.45 1715.12 1659.6L1710.06 1653.41C1707.33 1655.64 1702.98 1657.06 1696.4 1657.06V1665.06ZM1715.14 1659.59C1720.13 1655.47 1722.41 1649.58 1722.41 1642.59H1714.41C1714.41 1647.74 1712.81 1651.14 1710.04 1653.42L1715.14 1659.59ZM1722.41 1642.59C1722.41 1635.6 1720.13 1629.71 1715.14 1625.59L1710.04 1631.76C1712.81 1634.05 1714.41 1637.44 1714.41 1642.59H1722.41ZM1715.2 1625.65C1710.5 1621.59 1704.02 1619.87 1696.4 1619.87V1627.87C1702.94 1627.87 1707.25 1629.35 1709.97 1631.7L1715.2 1625.65ZM1696.4 1619.87H1668.06V1627.87H1696.4V1619.87ZM1664.06 1623.87V1661.06H1672.06V1623.87H1664.06ZM1699.94 1735.9C1707.72 1735.9 1714.33 1734.19 1719.18 1730.18L1714.09 1724.01C1711.19 1726.41 1706.66 1727.9 1699.94 1727.9V1735.9ZM1719.2 1730.17C1724.33 1725.89 1726.71 1719.86 1726.71 1712.67H1718.71C1718.71 1717.97 1717.04 1721.55 1714.08 1724.02L1719.2 1730.17ZM1726.71 1712.67C1726.71 1705.43 1724.21 1699.34 1718.96 1694.94L1713.81 1701.06C1717 1703.74 1718.71 1707.44 1718.71 1712.67H1726.71ZM1719.02 1694.99C1714.02 1690.61 1707.31 1688.69 1699.43 1688.69V1696.69C1706.06 1696.69 1710.65 1698.3 1713.75 1701.01L1719.02 1694.99ZM1699.43 1688.69H1668.06V1696.69H1699.43V1688.69ZM1664.06 1692.69V1731.9H1672.06V1692.69H1664.06ZM1668.06 1735.9H1699.94V1727.9H1668.06V1735.9ZM1930.21 1706.6V1710.6C1932.25 1710.6 1933.96 1709.08 1934.19 1707.06L1930.21 1706.6ZM1832.3 1706.6V1702.6C1831.19 1702.6 1830.13 1703.07 1829.37 1703.88C1828.61 1704.7 1828.23 1705.8 1828.32 1706.91L1832.3 1706.6ZM1840.65 1726.84L1837.87 1729.72C1837.91 1729.75 1837.94 1729.78 1837.98 1729.81L1840.65 1726.84ZM1881.64 1720.01V1716.01C1880.08 1716.01 1878.66 1716.91 1878.01 1718.33L1881.64 1720.01ZM1927.68 1720.01L1931.56 1721C1931.87 1719.8 1931.6 1718.53 1930.84 1717.55C1930.08 1716.58 1928.92 1716.01 1927.68 1716.01V1720.01ZM1914.78 1745.06L1911.72 1742.48C1911.71 1742.5 1911.7 1742.51 1911.69 1742.52L1914.78 1745.06ZM1891.76 1762.51L1893.41 1766.15L1891.76 1762.51ZM1823.7 1759.98L1821.78 1763.49L1823.7 1759.98ZM1798.4 1734.68L1801.9 1732.75L1798.4 1734.68ZM1798.15 1657.77L1794.65 1655.83C1794.64 1655.85 1794.63 1655.86 1794.63 1655.88L1798.15 1657.77ZM1823.45 1632.47L1825.37 1635.98L1823.45 1632.47ZM1897.07 1632.22L1895.17 1635.74L1897.07 1632.22ZM1921.87 1656.76L1918.37 1658.7C1918.38 1658.72 1918.38 1658.73 1918.39 1658.74L1921.87 1656.76ZM1886.7 1682.57V1686.57C1888.91 1686.57 1890.7 1684.77 1890.7 1682.57H1886.7ZM1879.11 1664.86L1881.73 1661.83L1879.11 1664.86ZM1841.66 1664.6L1839.1 1661.53C1839.09 1661.54 1839.07 1661.56 1839.05 1661.57L1841.66 1664.6ZM1832.56 1682.57L1828.6 1681.96C1828.43 1683.12 1828.76 1684.29 1829.52 1685.17C1830.28 1686.06 1831.39 1686.57 1832.56 1686.57V1682.57ZM1926.97 1693.95C1926.97 1697.83 1926.73 1701.9 1926.24 1706.14L1934.19 1707.06C1934.71 1702.53 1934.97 1698.16 1934.97 1693.95H1926.97ZM1930.21 1702.6H1832.3V1710.6H1930.21V1702.6ZM1828.32 1706.91C1829.04 1716.36 1832.09 1724.14 1837.87 1729.72L1843.43 1723.96C1839.43 1720.1 1836.91 1714.38 1836.29 1706.29L1828.32 1706.91ZM1837.98 1729.81C1843.82 1735.07 1850.95 1737.67 1859.12 1737.67V1729.67C1852.79 1729.67 1847.6 1727.71 1843.33 1723.87L1837.98 1729.81ZM1859.12 1737.67C1865.08 1737.67 1870.41 1736.41 1874.92 1733.68C1879.45 1730.93 1882.88 1726.86 1885.27 1721.69L1878.01 1718.33C1876.19 1722.27 1873.75 1725.03 1870.77 1726.84C1867.77 1728.66 1863.95 1729.67 1859.12 1729.67V1737.67ZM1881.64 1724.01H1927.68V1716.01H1881.64V1724.01ZM1923.81 1719.02C1921.6 1727.71 1917.58 1735.52 1911.72 1742.48L1917.84 1747.63C1924.47 1739.75 1929.05 1730.86 1931.56 1721L1923.81 1719.02ZM1911.69 1742.52C1906.03 1749.44 1898.86 1754.89 1890.1 1758.87L1893.41 1766.15C1903.21 1761.7 1911.39 1755.52 1917.88 1747.59L1911.69 1742.52ZM1890.1 1758.87C1881.41 1762.82 1871.61 1764.84 1860.64 1764.84V1772.84C1872.61 1772.84 1883.56 1770.64 1893.41 1766.15L1890.1 1758.87ZM1860.64 1764.84C1847.4 1764.84 1835.76 1762.02 1825.62 1756.47L1821.78 1763.49C1833.24 1769.76 1846.22 1772.84 1860.64 1772.84V1764.84ZM1825.62 1756.47C1815.5 1750.94 1807.61 1743.06 1801.9 1732.75L1794.9 1736.62C1801.33 1748.23 1810.31 1757.22 1821.78 1763.49L1825.62 1756.47ZM1801.9 1732.75C1796.21 1722.47 1793.29 1710.34 1793.29 1696.23H1785.29C1785.29 1711.46 1788.45 1724.97 1794.9 1736.62L1801.9 1732.75ZM1793.29 1696.23C1793.29 1682.1 1796.13 1669.95 1801.67 1659.67L1794.63 1655.88C1788.36 1667.52 1785.29 1681.01 1785.29 1696.23H1793.29ZM1801.65 1659.71C1807.36 1649.4 1815.25 1641.51 1825.37 1635.98L1821.53 1628.96C1810.06 1635.24 1801.08 1644.22 1794.65 1655.83L1801.65 1659.71ZM1825.37 1635.98C1835.5 1630.44 1847.22 1627.62 1860.64 1627.62V1619.62C1846.06 1619.62 1832.99 1622.69 1821.53 1628.96L1825.37 1635.98ZM1860.64 1627.62C1873.73 1627.62 1885.2 1630.36 1895.17 1635.74L1898.97 1628.7C1887.69 1622.61 1874.88 1619.62 1860.64 1619.62V1627.62ZM1895.17 1635.74C1905.12 1641.11 1912.83 1648.74 1918.37 1658.7L1925.36 1654.82C1919.09 1643.53 1910.27 1634.8 1898.97 1628.7L1895.17 1635.74ZM1918.39 1658.74C1924.07 1668.68 1926.97 1680.37 1926.97 1693.95H1934.97C1934.97 1679.2 1931.81 1666.09 1925.34 1654.77L1918.39 1658.74ZM1890.7 1682.57C1890.7 1674.13 1887.77 1667.07 1881.73 1661.83L1876.49 1667.88C1880.57 1671.42 1882.7 1676.16 1882.7 1682.57H1890.7ZM1881.73 1661.83C1875.84 1656.73 1868.55 1654.28 1860.13 1654.28V1662.28C1866.9 1662.28 1872.25 1664.21 1876.49 1667.88L1881.73 1661.83ZM1860.13 1654.28C1852.05 1654.28 1844.96 1656.65 1839.1 1661.53L1844.23 1667.68C1848.49 1664.12 1853.72 1662.28 1860.13 1662.28V1654.28ZM1839.05 1661.57C1833.29 1666.54 1829.89 1673.47 1828.6 1681.96L1836.51 1683.17C1837.58 1676.14 1840.26 1671.1 1844.28 1667.63L1839.05 1661.57ZM1832.56 1686.57H1886.7V1678.57H1832.56V1686.57ZM2078.02 1645.37L2074.5 1647.28C2075.2 1648.57 2076.55 1649.37 2078.02 1649.37V1645.37ZM2064.1 1631.97L2062.2 1635.48C2062.24 1635.5 2062.28 1635.52 2062.32 1635.54L2064.1 1631.97ZM2009.46 1641.07L2012.39 1643.79C2012.4 1643.78 2012.41 1643.77 2012.42 1643.76L2009.46 1641.07ZM2009.96 1716.21L2007.06 1718.96C2007.07 1718.98 2007.09 1719 2007.11 1719.02L2009.96 1716.21ZM2073.47 1721.78L2071.11 1718.55C2071.1 1718.55 2071.09 1718.56 2071.08 1718.57L2073.47 1721.78ZM2089.66 1698.5L2093.45 1699.77C2093.86 1698.55 2093.65 1697.21 2092.9 1696.17C2092.15 1695.12 2090.94 1694.5 2089.66 1694.5V1698.5ZM2034.76 1698.5H2030.76C2030.76 1700.71 2032.55 1702.5 2034.76 1702.5V1698.5ZM2034.76 1666.63V1662.63C2032.55 1662.63 2030.76 1664.42 2030.76 1666.63H2034.76ZM2128.87 1666.63H2132.87C2132.87 1664.42 2131.08 1662.63 2128.87 1662.63V1666.63ZM2128.87 1706.85L2132.71 1707.99C2132.82 1707.62 2132.87 1707.24 2132.87 1706.85H2128.87ZM2112.43 1736.96L2109.36 1734.39C2109.35 1734.41 2109.34 1734.42 2109.33 1734.43L2112.43 1736.96ZM2083.33 1759.48L2081.59 1755.88L2083.33 1759.48ZM1996.3 1756.69L1994.33 1760.17C1994.34 1760.18 1994.36 1760.19 1994.38 1760.2L1996.3 1756.69ZM1964.17 1724.56L1960.67 1726.51C1960.68 1726.52 1960.69 1726.53 1960.69 1726.54L1964.17 1724.56ZM1964.17 1630.95L1960.68 1629C1960.68 1629 1960.68 1629.01 1960.67 1629.01L1964.17 1630.95ZM1996.3 1598.82L1998.24 1602.32C1998.25 1602.31 1998.27 1602.31 1998.28 1602.3L1996.3 1598.82ZM2096.74 1602.62L2094.43 1605.88C2094.43 1605.88 2094.44 1605.89 2094.45 1605.89L2096.74 1602.62ZM2125.84 1645.37V1649.37C2127.07 1649.37 2128.24 1648.8 2129 1647.82C2129.76 1646.84 2130.02 1645.57 2129.71 1644.37L2125.84 1645.37ZM2081.54 1643.47C2077.94 1636.83 2072.69 1631.79 2065.89 1628.39L2062.32 1635.54C2067.66 1638.22 2071.7 1642.11 2074.5 1647.28L2081.54 1643.47ZM2066.01 1628.45C2059.42 1624.87 2051.73 1623.16 2043.11 1623.16V1631.16C2050.67 1631.16 2056.99 1632.65 2062.2 1635.48L2066.01 1628.45ZM2043.11 1623.16C2028.13 1623.16 2015.78 1628.17 2006.5 1638.38L2012.42 1643.76C2020 1635.42 2030.09 1631.16 2043.11 1631.16V1623.16ZM2006.52 1638.36C1997.25 1648.37 1992.81 1661.65 1992.81 1677.76H2000.81C2000.81 1663.17 2004.8 1651.99 2012.39 1643.79L2006.52 1638.36ZM1992.81 1677.76C1992.81 1694.84 1997.4 1708.75 2007.06 1718.96L2012.87 1713.47C2004.98 1705.12 2000.81 1693.4 2000.81 1677.76H1992.81ZM2007.11 1719.02C2016.96 1729.05 2030.3 1733.88 2046.65 1733.88V1725.88C2031.96 1725.88 2020.85 1721.59 2012.82 1713.41L2007.11 1719.02ZM2046.65 1733.88C2057.98 1733.88 2067.8 1730.99 2075.85 1724.99L2071.08 1718.57C2064.63 1723.37 2056.57 1725.88 2046.65 1725.88V1733.88ZM2075.82 1725.02C2084.02 1719.05 2089.86 1710.55 2093.45 1699.77L2085.86 1697.24C2082.71 1706.7 2077.76 1713.71 2071.11 1718.55L2075.82 1725.02ZM2089.66 1694.5H2034.76V1702.5H2089.66V1694.5ZM2038.76 1698.5V1666.63H2030.76V1698.5H2038.76ZM2034.76 1670.63H2128.87V1662.63H2034.76V1670.63ZM2124.87 1666.63V1706.85H2132.87V1666.63H2124.87ZM2125.04 1705.72C2122 1715.95 2116.79 1725.5 2109.36 1734.39L2115.5 1739.53C2123.58 1729.86 2129.34 1719.35 2132.71 1707.99L2125.04 1705.72ZM2109.33 1734.43C2102.14 1743.21 2092.92 1750.37 2081.59 1755.88L2085.08 1763.08C2097.36 1757.11 2107.53 1749.26 2115.52 1739.49L2109.33 1734.43ZM2081.59 1755.88C2070.39 1761.32 2057.68 1764.08 2043.36 1764.08V1772.08C2058.73 1772.08 2072.66 1769.11 2085.08 1763.08L2081.59 1755.88ZM2043.36 1764.08C2026.41 1764.08 2011.4 1760.42 1998.23 1753.19L1994.38 1760.2C2008.86 1768.15 2025.22 1772.08 2043.36 1772.08V1764.08ZM1998.28 1753.22C1985.24 1745.81 1975.05 1735.62 1967.65 1722.59L1960.69 1726.54C1968.81 1740.83 1980.04 1752.06 1994.33 1760.17L1998.28 1753.22ZM1967.67 1722.62C1960.45 1709.62 1956.78 1694.7 1956.78 1677.76H1948.78C1948.78 1695.89 1952.71 1712.18 1960.67 1726.51L1967.67 1722.62ZM1956.78 1677.76C1956.78 1660.81 1960.45 1645.89 1967.67 1632.9L1960.67 1629.01C1952.71 1643.34 1948.78 1659.62 1948.78 1677.76H1956.78ZM1967.66 1632.91C1975.06 1619.72 1985.24 1609.54 1998.24 1602.32L1994.36 1595.33C1980.04 1603.28 1968.8 1614.53 1960.68 1629L1967.66 1632.91ZM1998.28 1602.3C2011.27 1594.92 2026.17 1591.18 2043.11 1591.18V1583.18C2024.95 1583.18 2008.66 1587.21 1994.33 1595.34L1998.28 1602.3ZM2043.11 1591.18C2063.69 1591.18 2080.72 1596.16 2094.43 1605.88L2099.06 1599.35C2083.75 1588.5 2065.02 1583.18 2043.11 1583.18V1591.18ZM2094.45 1605.89C2108.3 1615.61 2117.47 1629.03 2121.96 1646.38L2129.71 1644.37C2124.76 1625.28 2114.53 1610.21 2099.04 1599.34L2094.45 1605.89ZM2125.84 1641.37H2078.02V1649.37H2125.84V1641.37ZM2202.42 1649.17H2198.42C2198.42 1650.94 2199.59 1652.5 2201.28 1653C2202.98 1653.51 2204.81 1652.84 2205.78 1651.35L2202.42 1649.17ZM2221.4 1630.95L2223.4 1634.42C2223.42 1634.41 2223.44 1634.39 2223.46 1634.38L2221.4 1630.95ZM2246.7 1624.12H2250.7C2250.7 1621.91 2248.91 1620.12 2246.7 1620.12V1624.12ZM2246.7 1669.92V1673.92C2248.91 1673.92 2250.7 1672.12 2250.7 1669.92H2246.7ZM2210.52 1677L2213.1 1680.06C2213.12 1680.04 2213.14 1680.03 2213.15 1680.01L2210.52 1677ZM2202.42 1766.81V1770.81C2204.63 1770.81 2206.42 1769.02 2206.42 1766.81H2202.42ZM2159.16 1766.81H2155.16C2155.16 1769.02 2156.95 1770.81 2159.16 1770.81V1766.81ZM2159.16 1625.64V1621.64C2156.95 1621.64 2155.16 1623.43 2155.16 1625.64H2159.16ZM2202.42 1625.64H2206.42C2206.42 1623.43 2204.63 1621.64 2202.42 1621.64V1625.64ZM2205.78 1651.35C2210.51 1644.09 2216.39 1638.47 2223.4 1634.42L2219.4 1627.49C2211.23 1632.21 2204.46 1638.73 2199.07 1646.98L2205.78 1651.35ZM2223.46 1634.38C2230.4 1630.22 2238.11 1628.12 2246.7 1628.12V1620.12C2236.73 1620.12 2227.58 1622.58 2219.34 1627.52L2223.46 1634.38ZM2242.7 1624.12V1669.92H2250.7V1624.12H2242.7ZM2246.7 1665.92H2234.81V1673.92H2246.7V1665.92ZM2234.81 1665.92C2223.52 1665.92 2214.3 1668.37 2207.89 1673.99L2213.15 1680.01C2217.53 1676.18 2224.51 1673.92 2234.81 1673.92V1665.92ZM2207.94 1673.94C2201.2 1679.63 2198.42 1689.22 2198.42 1701.29H2206.42C2206.42 1690.08 2209.05 1683.47 2213.1 1680.06L2207.94 1673.94ZM2198.42 1701.29V1766.81H2206.42V1701.29H2198.42ZM2202.42 1762.81H2159.16V1770.81H2202.42V1762.81ZM2163.16 1766.81V1625.64H2155.16V1766.81H2163.16ZM2159.16 1629.64H2202.42V1621.64H2159.16V1629.64ZM2198.42 1625.64V1649.17H2206.42V1625.64H2198.42ZM2406.02 1706.6V1710.6C2408.05 1710.6 2409.76 1709.08 2410 1707.06L2406.02 1706.6ZM2308.11 1706.6V1702.6C2307 1702.6 2305.93 1703.07 2305.18 1703.88C2304.42 1704.7 2304.04 1705.8 2304.12 1706.91L2308.11 1706.6ZM2316.46 1726.84L2313.68 1729.72C2313.72 1729.75 2313.75 1729.78 2313.78 1729.81L2316.46 1726.84ZM2357.45 1720.01V1716.01C2355.89 1716.01 2354.47 1716.91 2353.82 1718.33L2357.45 1720.01ZM2403.49 1720.01L2407.37 1721C2407.67 1719.8 2407.41 1718.53 2406.65 1717.55C2405.89 1716.58 2404.73 1716.01 2403.49 1716.01V1720.01ZM2390.59 1745.06L2387.53 1742.48C2387.52 1742.5 2387.51 1742.51 2387.49 1742.52L2390.59 1745.06ZM2367.57 1762.51L2369.22 1766.15L2367.57 1762.51ZM2299.51 1759.98L2297.59 1763.49L2299.51 1759.98ZM2274.21 1734.68L2277.71 1732.75L2274.21 1734.68ZM2273.96 1657.77L2270.46 1655.83C2270.45 1655.85 2270.44 1655.86 2270.43 1655.88L2273.96 1657.77ZM2299.26 1632.47L2301.18 1635.98L2299.26 1632.47ZM2372.88 1632.22L2370.98 1635.74L2372.88 1632.22ZM2397.67 1656.76L2394.18 1658.7C2394.18 1658.72 2394.19 1658.73 2394.2 1658.74L2397.67 1656.76ZM2362.51 1682.57V1686.57C2364.72 1686.57 2366.51 1684.77 2366.51 1682.57H2362.51ZM2354.92 1664.86L2357.54 1661.83L2354.92 1664.86ZM2317.47 1664.6L2314.91 1661.53C2314.89 1661.54 2314.88 1661.56 2314.86 1661.57L2317.47 1664.6ZM2308.36 1682.57L2304.41 1681.96C2304.23 1683.12 2304.57 1684.29 2305.33 1685.17C2306.09 1686.06 2307.2 1686.57 2308.36 1686.57V1682.57ZM2402.78 1693.95C2402.78 1697.83 2402.54 1701.9 2402.05 1706.14L2410 1707.06C2410.52 1702.53 2410.78 1698.16 2410.78 1693.95H2402.78ZM2406.02 1702.6H2308.11V1710.6H2406.02V1702.6ZM2304.12 1706.91C2304.85 1716.36 2307.9 1724.14 2313.68 1729.72L2319.24 1723.96C2315.24 1720.1 2312.72 1714.38 2312.1 1706.29L2304.12 1706.91ZM2313.78 1729.81C2319.63 1735.07 2326.76 1737.67 2334.93 1737.67V1729.67C2328.59 1729.67 2323.41 1727.71 2319.14 1723.87L2313.78 1729.81ZM2334.93 1737.67C2340.89 1737.67 2346.22 1736.41 2350.73 1733.68C2355.26 1730.93 2358.68 1726.86 2361.08 1721.69L2353.82 1718.33C2351.99 1722.27 2349.56 1725.03 2346.58 1726.84C2343.58 1728.66 2339.76 1729.67 2334.93 1729.67V1737.67ZM2357.45 1724.01H2403.49V1716.01H2357.45V1724.01ZM2399.62 1719.02C2397.41 1727.71 2393.39 1735.52 2387.53 1742.48L2393.65 1747.63C2400.27 1739.75 2404.86 1730.86 2407.37 1721L2399.62 1719.02ZM2387.49 1742.52C2381.83 1749.44 2374.67 1754.89 2365.91 1758.87L2369.22 1766.15C2379.02 1761.7 2387.2 1755.52 2393.69 1747.59L2387.49 1742.52ZM2365.91 1758.87C2357.22 1762.82 2347.42 1764.84 2336.45 1764.84V1772.84C2348.42 1772.84 2359.36 1770.64 2369.22 1766.15L2365.91 1758.87ZM2336.45 1764.84C2323.2 1764.84 2311.57 1762.02 2301.43 1756.47L2297.59 1763.49C2309.04 1769.76 2322.03 1772.84 2336.45 1772.84V1764.84ZM2301.43 1756.47C2291.31 1750.94 2283.42 1743.06 2277.71 1732.75L2270.71 1736.62C2277.14 1748.23 2286.12 1757.22 2297.59 1763.49L2301.43 1756.47ZM2277.71 1732.75C2272.02 1722.47 2269.1 1710.34 2269.1 1696.23H2261.1C2261.1 1711.46 2264.26 1724.97 2270.71 1736.62L2277.71 1732.75ZM2269.1 1696.23C2269.1 1682.1 2271.94 1669.95 2277.48 1659.67L2270.43 1655.88C2264.17 1667.52 2261.1 1681.01 2261.1 1696.23H2269.1ZM2277.46 1659.71C2283.17 1649.4 2291.06 1641.51 2301.18 1635.98L2297.34 1628.96C2285.86 1635.24 2276.89 1644.22 2270.46 1655.83L2277.46 1659.71ZM2301.18 1635.98C2311.3 1630.44 2323.03 1627.62 2336.45 1627.62V1619.62C2321.87 1619.62 2308.8 1622.69 2297.34 1628.96L2301.18 1635.98ZM2336.45 1627.62C2349.53 1627.62 2361.01 1630.36 2370.98 1635.74L2374.78 1628.7C2363.5 1622.61 2350.68 1619.62 2336.45 1619.62V1627.62ZM2370.98 1635.74C2380.93 1641.11 2388.64 1648.74 2394.18 1658.7L2401.17 1654.82C2394.9 1643.53 2386.08 1634.8 2374.78 1628.7L2370.98 1635.74ZM2394.2 1658.74C2399.88 1668.68 2402.78 1680.37 2402.78 1693.95H2410.78C2410.78 1679.2 2407.62 1666.09 2401.15 1654.77L2394.2 1658.74ZM2366.51 1682.57C2366.51 1674.13 2363.57 1667.07 2357.54 1661.83L2352.3 1667.88C2356.38 1671.42 2358.51 1676.16 2358.51 1682.57H2366.51ZM2357.54 1661.83C2351.65 1656.73 2344.36 1654.28 2335.94 1654.28V1662.28C2342.71 1662.28 2348.06 1664.21 2352.3 1667.88L2357.54 1661.83ZM2335.94 1654.28C2327.85 1654.28 2320.76 1656.65 2314.91 1661.53L2320.03 1667.68C2324.3 1664.12 2329.52 1662.28 2335.94 1662.28V1654.28ZM2314.86 1661.57C2309.1 1666.54 2305.7 1673.47 2304.41 1681.96L2312.32 1683.17C2313.39 1676.14 2316.06 1671.1 2320.08 1667.63L2314.86 1661.57ZM2308.36 1686.57H2362.51V1678.57H2308.36V1686.57ZM2435.42 1657.77L2431.86 1655.96C2431.85 1655.98 2431.84 1655.99 2431.84 1656L2435.42 1657.77ZM2457.94 1632.47L2460.06 1635.86V1635.86L2457.94 1632.47ZM2515.62 1629.69L2513.71 1633.2C2513.72 1633.21 2513.73 1633.21 2513.74 1633.22L2515.62 1629.69ZM2533.08 1645.63L2529.68 1647.72C2530.61 1649.25 2532.45 1649.96 2534.17 1649.48C2535.89 1648.99 2537.08 1647.42 2537.08 1645.63H2533.08ZM2533.08 1625.64V1621.64C2530.87 1621.64 2529.08 1623.43 2529.08 1625.64H2533.08ZM2576.34 1625.64H2580.34C2580.34 1623.43 2578.55 1621.64 2576.34 1621.64V1625.64ZM2576.34 1766.81V1770.81C2578.55 1770.81 2580.34 1769.02 2580.34 1766.81H2576.34ZM2533.08 1766.81H2529.08C2529.08 1769.02 2530.87 1770.81 2533.08 1770.81V1766.81ZM2533.08 1746.83H2537.08C2537.08 1745.05 2535.91 1743.49 2534.21 1742.99C2532.5 1742.49 2530.67 1743.17 2529.71 1744.67L2533.08 1746.83ZM2515.37 1762.77L2513.49 1759.24C2513.48 1759.24 2513.47 1759.25 2513.46 1759.25L2515.37 1762.77ZM2457.94 1759.98L2455.78 1763.35C2455.79 1763.36 2455.81 1763.37 2455.82 1763.38L2457.94 1759.98ZM2435.42 1734.43L2431.82 1736.18C2431.84 1736.2 2431.85 1736.22 2431.86 1736.24L2435.42 1734.43ZM2523.97 1670.67L2521.07 1673.42C2521.08 1673.44 2521.09 1673.45 2521.11 1673.46L2523.97 1670.67ZM2480.2 1670.67L2477.34 1667.89L2477.34 1667.89L2480.2 1670.67ZM2480.2 1721.78L2477.26 1724.49C2477.29 1724.52 2477.31 1724.54 2477.34 1724.57L2480.2 1721.78ZM2523.97 1721.78L2521.11 1718.99C2521.09 1719 2521.08 1719.02 2521.07 1719.03L2523.97 1721.78ZM2431.33 1695.97C2431.33 1681.97 2433.93 1669.86 2439.01 1659.54L2431.84 1656C2426.12 1667.61 2423.33 1680.97 2423.33 1695.97H2431.33ZM2438.99 1659.58C2444.26 1649.2 2451.3 1641.34 2460.06 1635.86L2455.82 1629.08C2445.7 1635.41 2437.72 1644.42 2431.86 1655.96L2438.99 1659.58ZM2460.06 1635.86C2468.84 1630.38 2478.64 1627.62 2489.57 1627.62V1619.62C2477.21 1619.62 2465.93 1622.76 2455.82 1629.08L2460.06 1635.86ZM2489.57 1627.62C2498.97 1627.62 2506.97 1629.52 2513.71 1633.2L2517.54 1626.18C2509.44 1621.76 2500.07 1619.62 2489.57 1619.62V1627.62ZM2513.74 1633.22C2520.78 1636.97 2526.04 1641.82 2529.68 1647.72L2536.49 1643.53C2532.03 1636.28 2525.65 1630.5 2517.51 1626.16L2513.74 1633.22ZM2537.08 1645.63V1625.64H2529.08V1645.63H2537.08ZM2533.08 1629.64H2576.34V1621.64H2533.08V1629.64ZM2572.34 1625.64V1766.81H2580.34V1625.64H2572.34ZM2576.34 1762.81H2533.08V1770.81H2576.34V1762.81ZM2537.08 1766.81V1746.83H2529.08V1766.81H2537.08ZM2529.71 1744.67C2525.9 1750.61 2520.54 1755.48 2513.49 1759.24L2517.25 1766.3C2525.39 1761.96 2531.83 1756.2 2536.45 1748.99L2529.71 1744.67ZM2513.46 1759.25C2506.72 1762.93 2498.71 1764.84 2489.31 1764.84V1772.84C2499.81 1772.84 2509.18 1770.7 2517.29 1766.28L2513.46 1759.25ZM2489.31 1764.84C2478.57 1764.84 2468.85 1762.09 2460.06 1756.59L2455.82 1763.38C2465.92 1769.69 2477.12 1772.84 2489.31 1772.84V1764.84ZM2460.1 1756.62C2451.31 1750.97 2444.27 1743.01 2438.99 1732.62L2431.86 1736.24C2437.71 1747.78 2445.68 1756.86 2455.78 1763.35L2460.1 1756.62ZM2439.02 1732.69C2433.93 1722.18 2431.33 1709.98 2431.33 1695.97H2423.33C2423.33 1710.98 2426.12 1724.41 2431.82 1736.18L2439.02 1732.69ZM2537.08 1696.23C2537.08 1684.65 2533.8 1675.04 2526.84 1667.89L2521.11 1673.46C2526.29 1678.79 2529.08 1686.21 2529.08 1696.23H2537.08ZM2526.88 1667.93C2520.22 1660.89 2511.92 1657.31 2502.22 1657.31V1665.31C2509.72 1665.31 2515.92 1667.98 2521.07 1673.42L2526.88 1667.93ZM2502.22 1657.31C2492.52 1657.31 2484.15 1660.88 2477.34 1667.89L2483.07 1673.46C2488.4 1667.99 2494.71 1665.31 2502.22 1665.31V1657.31ZM2477.34 1667.89C2470.52 1674.89 2467.35 1684.44 2467.35 1695.97H2475.35C2475.35 1685.92 2478.08 1678.6 2483.07 1673.46L2477.34 1667.89ZM2467.35 1695.97C2467.35 1707.52 2470.53 1717.18 2477.26 1724.49L2483.15 1719.07C2478.08 1713.57 2475.35 1706.02 2475.35 1695.97H2467.35ZM2477.34 1724.57C2484.15 1731.57 2492.52 1735.14 2502.22 1735.14V1727.14C2494.71 1727.14 2488.4 1724.47 2483.07 1718.99L2477.34 1724.57ZM2502.22 1735.14C2511.92 1735.14 2520.22 1731.57 2526.88 1724.53L2521.07 1719.03C2515.92 1724.47 2509.72 1727.14 2502.22 1727.14V1735.14ZM2526.84 1724.57C2533.8 1717.41 2537.08 1707.8 2537.08 1696.23H2529.08C2529.08 1706.24 2526.29 1713.67 2521.11 1718.99L2526.84 1724.57ZM2692.65 1730.13H2696.65C2696.65 1727.92 2694.86 1726.13 2692.65 1726.13V1730.13ZM2692.65 1766.81V1770.81C2694.86 1770.81 2696.65 1769.02 2696.65 1766.81H2692.65ZM2633.96 1755.43L2631.31 1758.43C2631.32 1758.44 2631.33 1758.44 2631.34 1758.45L2633.96 1755.43ZM2620.8 1661.57H2624.8C2624.8 1659.36 2623.01 1657.57 2620.8 1657.57V1661.57ZM2603.6 1661.57H2599.6C2599.6 1663.78 2601.39 1665.57 2603.6 1665.57V1661.57ZM2603.6 1625.64V1621.64C2601.39 1621.64 2599.6 1623.43 2599.6 1625.64H2603.6ZM2620.8 1625.64V1629.64C2623.01 1629.64 2624.8 1627.85 2624.8 1625.64H2620.8ZM2620.8 1591.23V1587.23C2618.59 1587.23 2616.8 1589.02 2616.8 1591.23H2620.8ZM2664.06 1591.23H2668.06C2668.06 1589.02 2666.27 1587.23 2664.06 1587.23V1591.23ZM2664.06 1625.64H2660.06C2660.06 1627.85 2661.85 1629.64 2664.06 1629.64V1625.64ZM2692.4 1625.64H2696.4C2696.4 1623.43 2694.61 1621.64 2692.4 1621.64V1625.64ZM2692.4 1661.57V1665.57C2694.61 1665.57 2696.4 1663.78 2696.4 1661.57H2692.4ZM2664.06 1661.57V1657.57C2661.85 1657.57 2660.06 1659.36 2660.06 1661.57H2664.06ZM2667.1 1727.35L2664.4 1730.3L2667.1 1727.35ZM2688.65 1730.13V1766.81H2696.65V1730.13H2688.65ZM2692.65 1762.81H2670.64V1770.81H2692.65V1762.81ZM2670.64 1762.81C2655.58 1762.81 2644.4 1759.17 2636.57 1752.4L2631.34 1758.45C2641.06 1766.87 2654.33 1770.81 2670.64 1770.81V1762.81ZM2636.61 1752.43C2629.04 1745.74 2624.8 1734.52 2624.8 1717.73H2616.8C2616.8 1735.69 2621.33 1749.6 2631.31 1758.43L2636.61 1752.43ZM2624.8 1717.73V1661.57H2616.8V1717.73H2624.8ZM2620.8 1657.57H2603.6V1665.57H2620.8V1657.57ZM2607.6 1661.57V1625.64H2599.6V1661.57H2607.6ZM2603.6 1629.64H2620.8V1621.64H2603.6V1629.64ZM2624.8 1625.64V1591.23H2616.8V1625.64H2624.8ZM2620.8 1595.23H2664.06V1587.23H2620.8V1595.23ZM2660.06 1591.23V1625.64H2668.06V1591.23H2660.06ZM2664.06 1629.64H2692.4V1621.64H2664.06V1629.64ZM2688.4 1625.64V1661.57H2696.4V1625.64H2688.4ZM2692.4 1657.57H2664.06V1665.57H2692.4V1657.57ZM2660.06 1661.57V1718.24H2668.06V1661.57H2660.06ZM2660.06 1718.24C2660.06 1722.98 2661.19 1727.36 2664.4 1730.3L2669.8 1724.4C2668.96 1723.63 2668.06 1721.93 2668.06 1718.24H2660.06ZM2664.4 1730.3C2667.53 1733.17 2672.16 1734.13 2677.22 1734.13V1726.13C2672.83 1726.13 2670.71 1725.23 2669.8 1724.4L2664.4 1730.3ZM2677.22 1734.13H2692.65V1726.13H2677.22V1734.13Z" fill="#F1D4D4"/>
</g>
<defs>
<filter id="filter0_d_1618_725" x="1375.06" y="1579.59" width="1321.59" height="197.244" filterUnits="userSpaceOnUse" color-interpolation-filters="sRGB">
<feFlood flood-opacity="0" result="BackgroundImageFix"/>
<feColorMatrix in="SourceAlpha" type="matrix" values="0 0 0 0 0 0 0 0 0 0 0 0 0 0 0 0 0 0 127 0" result="hardAlpha"/>
<feOffset dy="4"/>
<feGaussianBlur stdDeviation="2"/>
<feComposite in2="hardAlpha" operator="out"/>
<feColorMatrix type="matrix" values="0 0 0 0 0 0 0 0 0 0 0 0 0 0 0 0 0 0 0.25 0"/>
<feBlend mode="normal" in2="BackgroundImageFix" result="effect1_dropShadow_1618_725"/>
<feBlend mode="normal" in="SourceGraphic" in2="effect1_dropShadow_1618_725" result="shape"/>
</filter>
</defs>
</svg>
